<svg width="14" height="16" viewBox="0 0 14 16" fill="none" xmlns="http://www.w3.org/2000/svg">
<g clip-path="url(#clip0_472_16644)">
<path d="M6.97172 9.31764H5.88766C5.82456 9.31793 5.76428 9.2942 5.72184 9.25235C5.67939 9.21051 5.65875 9.15449 5.66506 9.09822L5.76078 8.12078C5.77008 8.01688 5.86707 7.93692 5.98338 7.93726H7.06744C7.13054 7.93697 7.19082 7.96071 7.23327 8.00255C7.27572 8.04439 7.29635 8.10042 7.29004 8.15668L7.19432 9.13412C7.18502 9.23802 7.08803 9.31798 6.97172 9.31764ZM7.14547 7.40392H6.04125C5.91928 7.40392 5.82041 7.30872 5.82041 7.19129L6.12076 3.88908C6.13423 3.78171 6.22927 3.70119 6.3416 3.70197H7.44582C7.56779 3.70197 7.66667 3.79717 7.66667 3.9146L7.35748 7.21893C7.34346 7.32229 7.25369 7.40063 7.14547 7.40392ZM13.6382 3.55311C13.7557 3.68954 13.8131 3.86718 13.7975 4.04609L13.3659 8.9519C13.352 9.11237 13.2804 9.2625 13.1642 9.37475L9.6348 12.7816C9.50881 12.9027 9.34023 12.9703 9.16489 12.9699H5.40758L2.10002 16L2.35616 12.9679H0.674142C0.485228 12.9681 0.304935 12.8894 0.177229 12.7511C0.0495232 12.6127 -0.0138565 12.4275 0.00254627 12.2405L1.0291 0.601204C1.06432 0.259142 1.35465 -0.000754985 1.7007 1.64782e-06H10.2661C10.4631 -5.49015e-05 10.6503 0.0856254 10.7783 0.234471L13.6382 3.55311ZM11.0224 8.01603L11.2966 4.98798C11.3073 4.80845 11.2448 4.63222 11.1232 4.499L9.50976 2.6473C9.3819 2.501 9.19652 2.41694 9.00153 2.41684H3.91918C3.57314 2.41608 3.28281 2.67598 3.24758 3.01804L2.64254 9.83166C2.62861 10.0181 2.69284 10.2019 2.82002 10.3397C2.9472 10.4775 3.12602 10.5569 3.31414 10.5591H8.31178C8.48516 10.5595 8.65203 10.4935 8.77766 10.3747L10.8207 8.44088C10.9374 8.32813 11.009 8.17721 11.0224 8.01603Z" fill="url(#paint0_linear_472_16644)"/>
</g>
<defs>
<linearGradient id="paint0_linear_472_16644" x1="1203.3" y1="3.64072e-06" x2="-25.9491" y2="1425.21" gradientUnits="userSpaceOnUse">
<stop stop-color="#F59C07"/>
<stop offset="1" stop-color="#F57507"/>
</linearGradient>
<clipPath id="clip0_472_16644">
<rect width="13.8" height="16" fill="white"/>
</clipPath>
</defs>
</svg>
