<svg width="16" height="16" viewBox="0 0 16 16" fill="none" xmlns="http://www.w3.org/2000/svg">
<g clip-path="url(#clip0_472_16666)">
<path d="M7.96266 2.17778e-05C5.8474 0.00989307 3.82215 0.857103 2.32993 2.35632C0.837704 3.85554 -2.30327e-05 5.88473 4.74956e-10 8.00001C4.7496e-10 10.1217 0.842853 12.1566 2.34314 13.6569C3.84343 15.1571 5.87826 16 7.99999 16C10.1217 16 12.1565 15.1571 13.6568 13.6569C15.1571 12.1566 16 10.1217 16 8.00001C16 5.87828 15.1571 3.84345 13.6568 2.34316C12.1565 0.842875 10.1217 2.17778e-05 7.99999 2.17778e-05C7.98754 -7.25926e-06 7.9751 -7.25926e-06 7.96266 2.17778e-05ZM11.2707 4.81602C11.3373 4.81468 11.4847 4.83135 11.5807 4.90935C11.6444 4.96475 11.6851 5.04207 11.6947 5.12602C11.7053 5.18802 11.7187 5.33001 11.708 5.44068C11.588 6.70601 11.0667 9.77534 10.8013 11.192C10.6893 11.792 10.4687 11.9927 10.2547 12.012C9.79065 12.0553 9.43799 11.7053 8.98799 11.4107C8.28399 10.9487 7.88599 10.6613 7.20266 10.2107C6.41266 9.69068 6.92466 9.40401 7.37466 8.93734C7.49266 8.81468 9.53932 6.95268 9.57932 6.78401C9.58399 6.76268 9.58865 6.68401 9.54199 6.64268C9.49532 6.60135 9.42599 6.61535 9.37599 6.62668C9.30532 6.64268 8.18066 7.38668 6.00199 8.85668C5.68199 9.07668 5.39333 9.18334 5.13399 9.17668C4.84866 9.17134 4.29933 9.01601 3.89066 8.88334C3.38933 8.72001 2.99133 8.63401 3.026 8.35734C3.044 8.21334 3.24266 8.06601 3.62133 7.91534C5.95333 6.89935 7.50799 6.22935 8.28666 5.90601C10.508 4.98202 10.97 4.82135 11.2707 4.81602Z" fill="black" fill-opacity="0.6"/>
</g>
<defs>
<clipPath id="clip0_472_16666">
<rect width="16" height="16" fill="white"/>
</clipPath>
</defs>
</svg>
