<svg width="16" height="16" viewBox="0 0 16 16" fill="none" xmlns="http://www.w3.org/2000/svg">
<path d="M15.6653 3.76067C15.5749 3.42018 15.3967 3.10942 15.1484 2.85951C14.9001 2.60959 14.5905 2.42929 14.2507 2.33667C13.0033 2 8 2 8 2C8 2 2.99667 2 1.74867 2.33667C1.40894 2.42946 1.09953 2.60982 0.851385 2.85972C0.603241 3.10962 0.425061 3.42029 0.334667 3.76067C0 5.01667 0 7.63667 0 7.63667C0 7.63667 0 10.2567 0.334667 11.5127C0.425057 11.8531 0.603317 12.1639 0.851594 12.4138C1.09987 12.6637 1.40945 12.844 1.74933 12.9367C2.99667 13.2733 8 13.2733 8 13.2733C8 13.2733 13.0033 13.2733 14.2513 12.9367C14.5912 12.8441 14.9009 12.6638 15.1491 12.4139C15.3974 12.164 15.5757 11.8532 15.666 11.5127C16 10.2567 16 7.63667 16 7.63667C16 7.63667 16 5.01667 15.6653 3.76067ZM6.36333 10.0153V5.258L10.5453 7.63667L6.36333 10.0153Z" fill="black" fill-opacity="0.6"/>
</svg>
