<svg width="32" height="32" viewBox="0 0 32 32" fill="none" xmlns="http://www.w3.org/2000/svg">
<path d="M6.19561 4.28796H7.34531L8.23952 4.54396L8.94212 4.99196L9.32535 5.37596V5.50396L9.51697 5.56796L9.96407 6.33596L10.1557 7.10396L10.6667 7.16796L13.6687 7.99996L15.2655 8.38396L15.4571 8.44796V7.61596L15.7126 7.29596H20.1198L20.3752 7.55196V9.85596L20.8862 9.91996L23.6966 10.688L24.016 10.56L24.5269 10.24L25.1657 10.048H25.9321L27.8483 10.56L28.8064 10.88L29.3174 11.328L29.7006 11.968L29.8922 12.608V13.44L29.6367 14.272L29.2535 14.848L28.8064 15.296L28.1677 15.616L27.6567 15.744H26.9541L25.0379 15.232L24.2076 14.912L23.6327 14.464L23.2495 13.888L23.1856 13.632L22.7385 13.568L21.5888 13.248L21.525 13.312L22.0359 14.144L22.5469 14.976L22.9301 15.744L23.5689 16.704L24.6547 18.56L25.1657 19.328L25.2934 19.52L26.0599 19.136L26.7625 18.944L27.2735 18.88H28.0399L28.998 19.072L29.3812 19.264L29.5729 19.584V19.84L30.2116 20.288L30.4032 20.416L30.7226 20.352L31.0419 20.48L31.5529 21.248L31.8723 22.016L32 22.528V24.064L31.8084 24.832L31.3613 25.728L30.9142 26.304L30.6587 26.56H30.5309L30.4671 26.752L29.5729 27.328L28.6148 27.648L28.2954 27.712H26.9541L25.996 27.456L25.485 27.2L24.7824 26.688L24.1437 26.112L23.9521 25.856L16.7984 25.792L16.5429 25.536L16.479 25.408H15.521L15.3293 25.728L15.2016 25.792L8.0479 25.856L7.47305 26.496L6.70659 27.072H6.57884V27.2L5.81238 27.52L5.04591 27.712H3.70459L2.74651 27.456L1.98004 27.072L1.53293 26.752L1.21357 26.432L0.766467 25.92L0.319361 25.152L0.0638723 24.384L0 24.064V22.528L0.255489 21.632L0.766467 20.736L1.46906 19.968L1.91617 19.584L2.81038 19.136L3.83234 18.88H4.91816L5.94012 19.136L6.70659 19.52L7.34531 20.032L7.79242 20.416L8.36727 19.776L8.94212 19.072L9.45309 18.56L9.64471 18.24L10.2196 17.6L10.7944 16.896L11.1776 16.576H11.6886L12.1996 16L12.1357 15.36L12.6467 14.72L13.4132 13.824L13.6687 13.504L13.988 13.184L14.5629 12.544L15.1377 11.776L15.2655 11.584L12.008 10.688L10.6028 10.368L10.2834 10.432L9.96407 10.752L9.32535 11.328L8.68663 11.712L7.79242 12.032L7.47305 12.096H6.00399L5.23752 11.904L4.34331 11.456L3.70459 10.88L3.25749 10.432L2.87425 9.79196L2.55489 9.08796L2.36327 8.19196V7.10396L2.68263 5.75996L2.81038 5.43996L3.12974 5.24796L3.64072 5.31196L4.1517 5.43996L4.66267 4.92796L5.17365 4.60796L5.87625 4.35196L6.19561 4.28796ZM15.3932 16.064L14.8184 16.704L14.3074 17.408L13.7325 18.048L13.2854 18.56L12.6467 19.264L12.0719 19.968L11.8802 20.16L11.7525 20.416L11.497 20.672L11.4331 20.864H15.4571V16.064H15.3932ZM20.3752 17.28V20.864H22.483L22.3553 20.544L21.4611 18.944L21.014 18.24L20.4391 17.28H20.3752Z" fill="#020101"/>
<path d="M8.43115 21.824H23.5689L23.4411 22.272L23.3773 22.784V23.872L23.505 24.512V24.832L16.7345 24.896L16.5429 25.344H15.4571L15.3932 24.96L15.2016 24.896L8.43115 24.832L8.62277 23.872V22.784L8.49502 22.144L8.43115 21.824Z" fill="#B1866C"/>
<path d="M29.4452 19.84L29.7645 19.968L30.2755 20.352L30.3394 20.544L30.2755 20.672V21.12L30.7226 21.824L30.9781 22.464L31.042 22.72V23.872L30.8504 24.448L30.4033 25.344L29.6368 26.112L28.7426 26.56L28.04 26.752H27.1458L26.1238 26.432L25.4851 25.984L25.1657 25.728V25.6L24.9741 25.536L24.4631 24.704L24.2715 24.192L24.2076 23.744V22.656L24.527 21.824L24.9741 21.184L25.6128 20.544L26.2516 20.16L26.8264 20.032L27.0819 19.904H28.1677L28.7426 20.032H29.2535L29.4452 19.84Z" fill="#A9AEC1"/>
<path d="M16.479 8.25598H19.4171V20.928H16.479V8.25598Z" fill="#B1866C"/>
<path d="M3.89625 19.9041H4.85434L5.68468 20.0961L6.00404 20.2881L6.70663 20.8001L7.21761 21.3761L7.66472 22.2081L7.79246 22.9121V23.7441L7.66472 24.4481L7.15374 25.3441L6.70663 25.8561L6.06791 26.3041L5.30144 26.6241L4.85434 26.7521H3.89625L2.8743 26.4321L2.29945 26.0481L1.91621 25.7281L1.40524 25.0241L1.08587 24.3841L0.95813 23.8721V22.8481L1.08587 22.2721L1.53298 21.3761L2.23557 20.6081L2.68268 20.2881H2.93817V20.1601L3.57689 19.9681L3.89625 19.9041Z" fill="#A9AEC1"/>
<path d="M3.57687 6.40002L4.34334 6.52802L5.1098 6.72002L6.38725 7.04002L6.45112 7.10402L7.34533 7.29602L9.00601 7.74402L10.5389 8.19202L12.6467 8.76802L13.7964 9.08802L14.499 9.21602L15.4571 9.47202L15.521 9.53602V10.56L15.1377 10.496L13.8603 10.176L12.519 9.79202L11.4332 9.53602L10.8583 9.34402L10.4112 9.21602H9.90022L9.38925 9.92002L8.87827 10.432L8.23955 10.816L7.34533 11.136H6.19563L5.55691 10.944L4.91819 10.624L4.21559 9.98402L3.70462 9.21602L3.44913 8.57602L3.38525 8.25602V6.97602L3.57687 6.40002Z" fill="#CCA086"/>
<path d="M27.1457 20.928H28.1676L28.8063 21.184L29.4451 21.696L29.8283 22.208L30.0199 22.848V23.744L29.7006 24.576L29.1257 25.216L28.6786 25.536L28.1676 25.6V25.728H27.3373L26.6986 25.6L26.5708 25.472L26.2514 25.344L25.8682 25.024L25.4211 24.32L25.2295 23.744V22.784L25.485 22.144L25.9321 21.568L26.4431 21.184L26.8263 20.992L27.1457 20.928Z" fill="#040405"/>
<path d="M3.83228 20.928H4.9181L5.55683 21.184L6.19555 21.696L6.64266 22.4L6.7704 22.784V23.744L6.57878 24.32L6.25942 24.832L5.81232 25.28L5.42908 25.536L4.9181 25.6V25.728H4.02389L3.25743 25.536L2.68258 25.088L2.23547 24.448L1.97998 23.744V22.976L2.23547 22.144L2.6187 21.632L3.19355 21.184L3.83228 20.928Z" fill="#040405"/>
<path d="M16.479 8.25598H19.4171V20.928H16.479V8.25598ZM17.2455 8.31998V20.864H19.3533V8.31998H17.2455Z" fill="#916655"/>
<path d="M15.3932 13.056H15.5209V14.464L14.8822 15.168L14.3074 15.872L13.7325 16.512L13.1577 17.216L12.3273 18.176L11.6247 19.008L10.986 19.712L10.475 20.352L10.0279 20.928H8.75049L9.13372 20.416L9.96406 19.456L10.7305 18.56L11.3054 17.856L11.7525 17.28V16.896L11.6886 16.576L12.2635 15.936H12.9022L13.2215 15.616L13.988 14.72L14.5629 14.08L15.1377 13.376L15.3932 13.056Z" fill="#CBA085"/>
<path d="M20.3752 13.504L20.6307 13.76L21.6527 15.488L22.6746 17.216L23.6966 18.88L24.1437 19.584L24.4631 20.16L24.3992 20.416L24.016 20.928H23.6327L23.4411 20.48L22.5469 18.944L21.9082 17.856L21.2056 16.576L20.6307 15.616L20.3752 15.168V13.504Z" fill="#C79C82"/>
<path d="M27.1457 21.8879H27.976L28.5509 22.1439L28.998 22.6559L29.1257 22.9759V23.6799L28.7425 24.3199L28.4232 24.5759L28.0399 24.7679H27.1457L26.5709 24.3839L26.2515 23.8719L26.1876 23.6159V23.0399L26.3792 22.4639L26.9541 21.9519L27.1457 21.8879Z" fill="#7B8292"/>
<path d="M3.89622 21.8879H4.72656L5.36529 22.2079L5.68465 22.5279L5.81239 23.0399V23.6159L5.62077 24.1279L5.30141 24.5119L4.79044 24.7679H3.89622L3.38525 24.4479L3.12976 24.1279L2.93814 23.8719L2.87427 23.6159V22.9759L3.12976 22.4639L3.64073 22.0159L3.89622 21.8879Z" fill="#7B8293"/>
<path d="M8.43115 21.824H23.5689L23.4411 22.272L23.3773 22.784V23.872L23.505 24.512V24.832H16.9262V24.768H22.6747L22.5469 24.128V22.528L22.6747 21.888H9.32536L9.51698 22.72V23.872L9.32536 24.768H15.0739V24.832H8.43115L8.62277 23.872V22.784L8.49502 22.144L8.43115 21.824Z" fill="#7D5849"/>
<path d="M3.57687 6.40002L4.34334 6.52802L5.1098 6.72002L4.85432 6.78402V8.25602L4.98206 8.96002L5.42917 9.85602L5.94014 10.496L6.70661 11.072V11.136H6.19563L5.55691 10.944L4.91819 10.624L4.21559 9.98402L3.70462 9.21602L3.44913 8.57602L3.38525 8.25602V6.97602L3.57687 6.40002Z" fill="#AF846B"/>
<path d="M3.25753 20.032L3.51302 20.096L3.44915 20.224L3.06591 20.416L2.61881 20.864L2.29945 21.312L1.91621 22.272L1.85234 22.592V24L2.04396 24.768L2.1717 24.96V25.216H2.29945L2.68268 25.856L3.19366 26.304L3.51302 26.624L2.8743 26.432L2.29945 26.048L1.91621 25.728L1.40524 25.024L1.08587 24.384L0.95813 23.872V22.848L1.08587 22.272L1.53298 21.376L2.23557 20.608L2.68268 20.288H2.93817V20.16L3.25753 20.032Z" fill="#7B8192"/>
<path d="M26.2516 20.16H26.507L26.4432 20.352L25.9322 20.8L25.4851 21.504L25.1657 22.272L25.038 22.848V23.744L25.2296 24.512L25.4851 25.152L25.9961 25.856L26.1877 26.048V26.176L26.4432 26.304L26.7625 26.624L26.1238 26.432L25.4851 25.984L25.1657 25.728V25.6L24.9741 25.536L24.4631 24.704L24.2715 24.192L24.2076 23.744V22.656L24.527 21.824L24.9741 21.184L25.6128 20.544L26.2516 20.16Z" fill="#798090"/>
<path d="M15.3932 13.056H15.5209V14.464H15.4571L15.3932 13.504L14.6906 14.336L14.1158 14.976L13.6048 15.616L12.9661 16.32L12.7106 16.704L12.3912 17.024L11.8164 17.728L11.2415 18.368L10.7944 18.88L10.1557 19.648L9.70857 20.16L9.19759 20.8L10.0279 20.864V20.928H8.75049L9.13372 20.416L9.96406 19.456L10.7305 18.56L11.3054 17.856L11.7525 17.28V16.896L11.6886 16.576L12.2635 15.936H12.9022L13.2215 15.616L13.988 14.72L14.5629 14.08L15.1377 13.376L15.3932 13.056Z" fill="#A98068"/>
<path d="M4.21558 13.184L4.66269 13.248L4.91818 13.568L4.85431 14.016L3.89622 15.936L3.64073 16.128H3.12976L2.87427 15.872L2.93814 15.296L3.83235 13.504L4.21558 13.184Z" fill="black"/>
<path d="M26.3793 11.264L27.0819 11.392L27.2735 11.456V11.84L27.0819 12.416L26.9541 13.12L26.6348 14.08L26.5709 14.528L26.0599 14.464L25.549 14.336L25.6767 13.76L25.9322 12.8L26.3793 11.264Z" fill="#F8E76B"/>
<path d="M20.3752 13.504L20.6307 13.76L21.014 14.4L20.9501 14.528L20.8223 14.464L20.8862 15.232L21.0778 15.808H21.2056L21.2695 16.128H21.3972L21.5888 16.704H21.7166L21.8443 17.152H21.9721L22.6108 18.304L23.6327 20.032L23.8882 20.48V20.672L24.1437 20.8L24.016 20.928H23.6327L23.4411 20.48L22.5469 18.944L21.9082 17.856L21.2056 16.576L20.6307 15.616L20.3752 15.168V13.504Z" fill="#AC836A"/>
<path d="M20.3752 10.88L21.014 11.008L22.6108 11.456L23.2495 11.584L23.3134 11.776L23.1856 12.096L23.1218 12.608L22.5469 12.48L21.7804 12.288L21.1417 12.096L20.503 11.968L20.3752 11.904V10.88Z" fill="#C89E83"/>
<path d="M6.38719 5.24805H7.15366L7.984 5.56805L8.62272 6.08005L9.00595 6.65605V6.84805L8.4311 6.72005L7.85625 6.52805L6.70655 6.27205L5.36523 5.88805V5.69605L5.81234 5.44005L6.38719 5.24805Z" fill="#A7ABBF"/>
<path d="M8.5589 21.8879H9.32536L9.51698 22.7199V23.8719L9.32536 24.7679H15.0739V24.8319H8.43115L8.62277 23.8719V22.7839L8.5589 21.8879Z" fill="#8A6050"/>
<path d="M28.1677 11.84L28.487 11.968L28.7425 12.288L28.8703 12.544V13.504L28.5509 14.144L28.2954 14.464L27.7844 14.72H27.4651L27.5928 13.952L27.9122 12.8L28.1677 11.84Z" fill="#F1E168"/>
<path d="M25.1018 11.072H25.4212L25.2934 11.712L24.7825 13.568L24.6547 13.952L24.2715 13.632L24.016 13.184V12.288L24.3354 11.648L24.9102 11.136L25.1018 11.072Z" fill="#F2CF42"/>
<path d="M2.81035 12.16L3.25746 12.224L3.44907 12.416V12.992L2.87422 14.08L2.6826 14.208H2.17163L1.91614 13.952V13.44L2.49099 12.352L2.81035 12.16Z" fill="black"/>
<path d="M6.38719 5.24805H7.15366L6.96204 5.37605L6.45106 5.82405L6.32332 6.08005L6.51493 6.14405L6.00396 6.08005L5.36523 5.88805V5.69605L5.81234 5.44005L6.38719 5.24805Z" fill="#747A8A"/>
<path d="M17.7565 10.24H18.1397L18.3952 10.496V10.944L18.2036 11.136H17.6926L17.501 10.944V10.496L17.7565 10.24Z" fill="#060504"/>
<path d="M25.2934 11.264L25.3573 11.456L24.9102 12.992H24.7825V12.288L25.038 11.584L25.2934 11.264Z" fill="#FBE868"/>
<path d="M9.90014 9.15198H10.4111V9.21598L9.96401 9.34398L9.64465 9.59998L9.7724 9.27998L9.90014 9.15198Z" fill="#382C24"/>
<path d="M17.7565 10.24H18.1397V10.304L17.7565 10.432L17.501 10.624L17.6287 10.304L17.7565 10.24Z" fill="#1A1410"/>
</svg>
