<svg width="28" height="28" viewBox="0 0 28 28" fill="none" xmlns="http://www.w3.org/2000/svg">
<g clip-path="url(#clip0_462_16599)">
<path d="M14 0.875C6.7515 0.875 0.875 6.7515 0.875 14C0.875 21.2485 6.7515 27.125 14 27.125C21.2485 27.125 27.125 21.2485 27.125 14C27.125 6.7515 21.2485 0.875 14 0.875ZM21.4261 18.375C21.6606 17.269 21.8085 16.0948 21.8566 14.875H25.3417C25.2507 16.0834 24.969 17.2568 24.5026 18.375H21.4261ZM6.57388 9.625C6.33938 10.731 6.1915 11.9052 6.14337 13.125H2.65825C2.74925 11.9166 3.031 10.7432 3.49737 9.625H6.57388ZM19.6341 9.625C19.8966 10.745 20.055 11.9175 20.1066 13.125H14.875V9.625H19.6341ZM14.875 7.875V2.75275C15.274 2.86912 15.6695 3.06338 16.0571 3.33725C16.7842 3.85 17.479 4.63925 18.0679 5.62012C18.4748 6.29825 18.8265 7.05338 19.1205 7.87588H14.875V7.875ZM9.93212 5.61925C10.521 4.63837 11.2158 3.84913 11.9429 3.33638C12.3305 3.0625 12.726 2.86825 13.125 2.75187V7.87412H8.8795C9.1735 7.05162 9.52525 6.29737 9.93212 5.61925ZM13.125 9.625V13.125H7.89337C7.945 11.9175 8.10337 10.745 8.36587 9.625H13.125ZM3.49737 18.375C3.031 17.2568 2.75013 16.0834 2.65825 14.875H6.14337C6.1915 16.0948 6.33938 17.269 6.57388 18.375H3.49737ZM7.89337 14.875H13.125V18.375H8.36587C8.10337 17.255 7.945 16.0825 7.89337 14.875ZM13.125 20.125V25.2473C12.726 25.1309 12.3305 24.9366 11.9429 24.6628C11.2158 24.15 10.521 23.3607 9.93212 22.3799C9.52525 21.7017 9.1735 20.9466 8.8795 20.1241L13.125 20.125ZM18.0679 22.3807C17.479 23.3616 16.7842 24.1509 16.0571 24.6636C15.6695 24.9366 15.274 25.1317 14.875 25.2481V20.1259H19.1205C18.8265 20.9484 18.4748 21.7026 18.0679 22.3816V22.3807ZM14.875 18.375V14.875H20.1066C20.055 16.0825 19.8966 17.255 19.6341 18.375H14.875ZM21.8575 13.125C21.8094 11.9052 21.6615 10.731 21.427 9.625H24.5035C24.9699 10.7432 25.2516 11.9166 25.3426 13.125H21.8575ZM23.5883 7.875H20.9659C20.4566 6.2685 19.7523 4.85888 18.9061 3.7345C20.069 4.291 21.1225 5.0365 22.043 5.957C22.6301 6.54413 23.1464 7.1855 23.5883 7.875ZM5.957 5.957C6.8775 5.0365 7.931 4.291 9.09387 3.7345C8.24775 4.85888 7.54425 6.2685 7.03413 7.875H4.41175C4.85275 7.1855 5.369 6.54413 5.957 5.957ZM4.41175 20.125H7.03413C7.54425 21.7315 8.24775 23.1411 9.09387 24.2655C7.931 23.709 6.8775 22.9635 5.957 22.043C5.36988 21.4559 4.85362 20.8145 4.41175 20.125ZM22.043 22.043C21.1225 22.9635 20.069 23.709 18.9061 24.2655C19.7523 23.1411 20.4558 21.7315 20.9659 20.125H23.5883C23.1473 20.8145 22.631 21.4559 22.043 22.043Z" fill="black"/>
</g>
<defs>
<clipPath id="clip0_462_16599">
<rect width="28" height="28" fill="white"/>
</clipPath>
</defs>
</svg>
