<svg width="108" height="51" viewBox="0 0 108 51" fill="none" xmlns="http://www.w3.org/2000/svg">
<rect width="108" height="51" rx="10" fill="white" fill-opacity="0.25"/>
<line x1="35.4287" y1="26.2572" x2="26.4287" y2="41.2572" stroke="#7A9A0D"/>
<line x1="28.4287" y1="26.2572" x2="19.4287" y2="41.2572" stroke="#7A9A0D"/>
<line x1="21.4287" y1="26.2572" x2="12.4287" y2="41.2572" stroke="#7A9A0D"/>
<line x1="16" y1="28.5" x2="38" y2="28.5" stroke="#7A9A0D"/>
<line x1="13" y1="33.5" x2="35" y2="33.5" stroke="#7A9A0D"/>
<line x1="10" y1="38.5" x2="32" y2="38.5" stroke="#7A9A0D"/>
<path d="M28.4597 23.18C28.0997 23.18 27.8117 23.084 27.5957 22.892C27.3797 22.7 27.2717 22.436 27.2717 22.1V12.254H23.7977C23.4497 12.254 23.1737 12.176 22.9697 12.02C22.7777 11.852 22.6817 11.624 22.6817 11.336C22.6817 11.036 22.7777 10.808 22.9697 10.652C23.1617 10.484 23.4377 10.4 23.7977 10.4H33.1397C33.4997 10.4 33.7757 10.484 33.9677 10.652C34.1597 10.808 34.2557 11.036 34.2557 11.336C34.2557 11.624 34.1537 11.852 33.9497 12.02C33.7577 12.176 33.4877 12.254 33.1397 12.254H29.6657V22.1C29.6657 22.424 29.5517 22.688 29.3237 22.892C29.1077 23.084 28.8197 23.18 28.4597 23.18ZM36.3652 23.18C35.9932 23.18 35.7052 23.084 35.5012 22.892C35.2972 22.7 35.1952 22.436 35.1952 22.1V15.08C35.1952 14.732 35.2912 14.468 35.4832 14.288C35.6872 14.096 35.9692 14 36.3292 14C36.6892 14 36.9712 14.096 37.1752 14.288C37.3792 14.48 37.4812 14.744 37.4812 15.08V15.674C37.8532 15.194 38.2852 14.828 38.7772 14.576C39.2812 14.312 39.8212 14.18 40.3972 14.18H40.7932C41.1772 14.18 41.4712 14.264 41.6752 14.432C41.8912 14.588 41.9992 14.816 41.9992 15.116C41.9992 15.416 41.8912 15.65 41.6752 15.818C41.4712 15.974 41.1772 16.052 40.7932 16.052H40.1812C39.3772 16.052 38.7352 16.31 38.2552 16.826C37.7872 17.33 37.5532 18.026 37.5532 18.914V22.1C37.5532 22.436 37.4452 22.7 37.2292 22.892C37.0132 23.084 36.7252 23.18 36.3652 23.18ZM47.7143 23.18C46.9703 23.18 46.3103 23.054 45.7343 22.802C45.1703 22.55 44.7263 22.202 44.4023 21.758C44.0903 21.302 43.9343 20.78 43.9343 20.192C43.9343 19.304 44.3003 18.596 45.0323 18.068C45.7763 17.54 46.7783 17.276 48.0383 17.276C49.1303 17.276 50.0063 17.51 50.6663 17.978V17.546C50.6663 16.982 50.4923 16.55 50.1443 16.25C49.7963 15.95 49.2923 15.8 48.6323 15.8C47.6483 15.8 46.8023 16.01 46.0943 16.43C45.7943 16.598 45.5363 16.682 45.3203 16.682C45.0563 16.682 44.8223 16.562 44.6183 16.322C44.4863 16.154 44.4203 15.98 44.4203 15.8C44.4203 15.5 44.5763 15.236 44.8883 15.008C45.3203 14.696 45.8663 14.45 46.5263 14.27C47.1863 14.09 47.8823 14 48.6143 14C50.0063 14 51.0983 14.318 51.8903 14.954C52.6943 15.578 53.0963 16.442 53.0963 17.546V22.172C53.0963 22.484 52.9883 22.73 52.7723 22.91C52.5683 23.09 52.2863 23.18 51.9263 23.18C51.5543 23.18 51.2663 23.096 51.0623 22.928C50.8583 22.76 50.7563 22.52 50.7563 22.208V22.01C50.0723 22.79 49.0583 23.18 47.7143 23.18ZM48.2723 21.524C49.0283 21.524 49.6163 21.41 50.0363 21.182C50.4683 20.942 50.6843 20.612 50.6843 20.192C50.6843 19.796 50.4683 19.478 50.0363 19.238C49.6043 18.998 49.0283 18.878 48.3083 18.878C47.6603 18.878 47.1563 18.992 46.7963 19.22C46.4483 19.448 46.2743 19.772 46.2743 20.192C46.2743 20.612 46.4483 20.942 46.7963 21.182C47.1443 21.41 47.6363 21.524 48.2723 21.524ZM60.7562 23.18C59.3282 23.18 58.3382 22.382 57.7862 20.786L55.8782 15.314C55.8422 15.206 55.8242 15.104 55.8242 15.008C55.8242 14.732 55.9442 14.498 56.1842 14.306C56.4362 14.114 56.7602 14.018 57.1562 14.018C57.3962 14.018 57.6002 14.072 57.7682 14.18C57.9362 14.288 58.0562 14.438 58.1282 14.63L60.1442 20.48C60.2402 20.78 60.3362 20.996 60.4322 21.128C60.5282 21.248 60.6362 21.308 60.7562 21.308C60.8762 21.308 60.9842 21.248 61.0802 21.128C61.1762 20.996 61.2722 20.78 61.3682 20.48L63.3842 14.63C63.4562 14.438 63.5762 14.288 63.7442 14.18C63.9122 14.072 64.1162 14.018 64.3562 14.018C64.7642 14.018 65.0882 14.114 65.3282 14.306C65.5682 14.486 65.6882 14.72 65.6882 15.008C65.6882 15.104 65.6702 15.206 65.6342 15.314L63.7262 20.786C63.1742 22.382 62.1842 23.18 60.7562 23.18ZM70.4423 12.884C69.9983 12.884 69.6383 12.764 69.3623 12.524C69.0983 12.272 68.9663 11.948 68.9663 11.552C68.9663 11.156 69.0983 10.838 69.3623 10.598C69.6383 10.346 69.9983 10.22 70.4423 10.22C70.8863 10.22 71.2463 10.346 71.5223 10.598C71.8103 10.838 71.9543 11.156 71.9543 11.552C71.9543 11.948 71.8103 12.272 71.5223 12.524C71.2463 12.764 70.8863 12.884 70.4423 12.884ZM70.4603 23.18C70.0883 23.18 69.8003 23.084 69.5963 22.892C69.3923 22.7 69.2903 22.436 69.2903 22.1V15.08C69.2903 14.744 69.3923 14.48 69.5963 14.288C69.8003 14.096 70.0883 14 70.4603 14C70.8203 14 71.1083 14.096 71.3243 14.288C71.5403 14.48 71.6483 14.744 71.6483 15.08V22.1C71.6483 22.436 71.5403 22.7 71.3243 22.892C71.1083 23.084 70.8203 23.18 70.4603 23.18ZM79.0069 23.18C78.2629 23.18 77.6029 23.054 77.0269 22.802C76.4629 22.55 76.0189 22.202 75.6949 21.758C75.3829 21.302 75.2269 20.78 75.2269 20.192C75.2269 19.304 75.5929 18.596 76.3249 18.068C77.0689 17.54 78.0709 17.276 79.3309 17.276C80.4229 17.276 81.2989 17.51 81.9589 17.978V17.546C81.9589 16.982 81.7849 16.55 81.4369 16.25C81.0889 15.95 80.5849 15.8 79.9249 15.8C78.9409 15.8 78.0949 16.01 77.3869 16.43C77.0869 16.598 76.8289 16.682 76.6129 16.682C76.3489 16.682 76.1149 16.562 75.9109 16.322C75.7789 16.154 75.7129 15.98 75.7129 15.8C75.7129 15.5 75.8689 15.236 76.1809 15.008C76.6129 14.696 77.1589 14.45 77.8189 14.27C78.4789 14.09 79.1749 14 79.9069 14C81.2989 14 82.3909 14.318 83.1829 14.954C83.9869 15.578 84.3889 16.442 84.3889 17.546V22.172C84.3889 22.484 84.2809 22.73 84.0649 22.91C83.8609 23.09 83.5789 23.18 83.2189 23.18C82.8469 23.18 82.5589 23.096 82.3549 22.928C82.1509 22.76 82.0489 22.52 82.0489 22.208V22.01C81.3649 22.79 80.3509 23.18 79.0069 23.18ZM79.5649 21.524C80.3209 21.524 80.9089 21.41 81.3289 21.182C81.7609 20.942 81.9769 20.612 81.9769 20.192C81.9769 19.796 81.7609 19.478 81.3289 19.238C80.8969 18.998 80.3209 18.878 79.6009 18.878C78.9529 18.878 78.4489 18.992 78.0889 19.22C77.7409 19.448 77.5669 19.772 77.5669 20.192C77.5669 20.612 77.7409 20.942 78.0889 21.182C78.4369 21.41 78.9289 21.524 79.5649 21.524ZM88.9238 23.18C88.5518 23.18 88.2638 23.084 88.0598 22.892C87.8558 22.7 87.7538 22.436 87.7538 22.1V15.08C87.7538 14.732 87.8498 14.468 88.0418 14.288C88.2458 14.096 88.5278 14 88.8878 14C89.2478 14 89.5298 14.096 89.7338 14.288C89.9378 14.48 90.0398 14.744 90.0398 15.08V15.602C90.8918 14.534 92.0558 14 93.5318 14C94.6838 14 95.5898 14.366 96.2498 15.098C96.9218 15.818 97.2578 16.802 97.2578 18.05V22.1C97.2578 22.436 97.1498 22.7 96.9338 22.892C96.7178 23.084 96.4298 23.18 96.0698 23.18C95.6978 23.18 95.4098 23.084 95.2058 22.892C95.0018 22.7 94.8998 22.436 94.8998 22.1V18.05C94.8998 17.366 94.7318 16.832 94.3958 16.448C94.0598 16.064 93.5918 15.872 92.9918 15.872C92.0798 15.872 91.3718 16.142 90.8678 16.682C90.3638 17.21 90.1118 17.954 90.1118 18.914V22.1C90.1118 22.436 90.0038 22.7 89.7878 22.892C89.5718 23.084 89.2838 23.18 88.9238 23.18Z" fill="#057FB1"/>
<path d="M43.2441 41.18C42.6801 41.18 42.2241 41 41.8761 40.64C41.5401 40.28 41.3001 39.716 41.1561 38.948L39.2481 29.156C39.2241 29.036 39.2121 28.946 39.2121 28.886C39.2121 28.67 39.2781 28.508 39.4101 28.4C39.5541 28.28 39.7521 28.22 40.0041 28.22C40.2921 28.22 40.5021 28.286 40.6341 28.418C40.7781 28.538 40.8741 28.724 40.9221 28.976L42.7581 39.038C42.8181 39.326 42.8841 39.524 42.9561 39.632C43.0281 39.728 43.1361 39.776 43.2801 39.776C43.4361 39.776 43.5501 39.722 43.6221 39.614C43.7061 39.494 43.7661 39.308 43.8021 39.056L45.1341 30.002C45.2181 29.426 45.4101 28.988 45.7101 28.688C46.0101 28.376 46.4061 28.22 46.8981 28.22C47.3901 28.22 47.7801 28.376 48.0681 28.688C48.3681 29 48.5601 29.438 48.6441 30.002L49.9581 39.056C49.9941 39.308 50.0541 39.494 50.1381 39.614C50.2221 39.722 50.3361 39.776 50.4801 39.776C50.6241 39.776 50.7321 39.722 50.8041 39.614C50.8881 39.506 50.9541 39.314 51.0021 39.038L52.8561 28.976C52.9041 28.724 53.0001 28.538 53.1441 28.418C53.2881 28.286 53.4981 28.22 53.7741 28.22C54.2901 28.22 54.5481 28.442 54.5481 28.886C54.5481 28.946 54.5361 29.036 54.5121 29.156L52.6221 38.948C52.4661 39.692 52.2201 40.25 51.8841 40.622C51.5601 40.994 51.1041 41.18 50.5161 41.18C49.9521 41.18 49.5081 41 49.1841 40.64C48.8721 40.28 48.6561 39.722 48.5361 38.966L47.2581 30.218C47.2221 30.002 47.1741 29.852 47.1141 29.768C47.0661 29.672 46.9941 29.624 46.8981 29.624C46.7901 29.624 46.7061 29.672 46.6461 29.768C46.5981 29.852 46.5561 30.002 46.5201 30.218L45.2241 38.966C45.1161 39.722 44.9001 40.28 44.5761 40.64C44.2521 41 43.8081 41.18 43.2441 41.18ZM62.309 41.18C61.265 41.18 60.359 40.976 59.591 40.568C58.823 40.16 58.235 39.608 57.827 38.912C57.431 38.216 57.233 37.442 57.233 36.59C57.233 35.738 57.431 34.964 57.827 34.268C58.235 33.572 58.823 33.02 59.591 32.612C60.359 32.204 61.265 32 62.309 32C63.353 32 64.253 32.204 65.009 32.612C65.777 33.02 66.359 33.572 66.755 34.268C67.163 34.964 67.367 35.738 67.367 36.59C67.367 37.442 67.163 38.216 66.755 38.912C66.359 39.608 65.777 40.16 65.009 40.568C64.253 40.976 63.353 41.18 62.309 41.18ZM62.309 39.794C63.341 39.794 64.163 39.512 64.775 38.948C65.387 38.384 65.693 37.598 65.693 36.59C65.693 35.582 65.387 34.796 64.775 34.232C64.163 33.668 63.341 33.386 62.309 33.386C61.277 33.386 60.449 33.668 59.825 34.232C59.213 34.796 58.907 35.582 58.907 36.59C58.907 37.598 59.213 38.384 59.825 38.948C60.449 39.512 61.277 39.794 62.309 39.794ZM71.8752 41.18C71.6112 41.18 71.4072 41.108 71.2632 40.964C71.1312 40.808 71.0652 40.598 71.0652 40.334V32.846C71.0652 32.282 71.3352 32 71.8752 32C72.1272 32 72.3252 32.078 72.4692 32.234C72.6132 32.378 72.6852 32.582 72.6852 32.846V33.764C73.4772 32.708 74.5512 32.18 75.9072 32.18H76.3392C76.6272 32.18 76.8492 32.24 77.0052 32.36C77.1612 32.48 77.2392 32.654 77.2392 32.882C77.2392 33.098 77.1552 33.266 76.9872 33.386C76.8312 33.506 76.6152 33.566 76.3392 33.566H75.7992C74.8512 33.566 74.1012 33.848 73.5492 34.412C72.9972 34.964 72.7212 35.72 72.7212 36.68V40.334C72.7212 40.598 72.6432 40.808 72.4872 40.964C72.3432 41.108 72.1392 41.18 71.8752 41.18ZM81.8575 41.18C81.5935 41.18 81.3895 41.108 81.2455 40.964C81.1135 40.808 81.0475 40.598 81.0475 40.334V28.184C81.0475 27.908 81.1135 27.698 81.2455 27.554C81.3895 27.41 81.5935 27.338 81.8575 27.338C82.1215 27.338 82.3255 27.416 82.4695 27.572C82.6255 27.716 82.7035 27.92 82.7035 28.184V40.334C82.7035 40.598 82.6255 40.808 82.4695 40.964C82.3255 41.108 82.1215 41.18 81.8575 41.18ZM91.5381 41.18C90.5661 41.18 89.7201 41 89.0001 40.64C88.2801 40.268 87.7221 39.74 87.3261 39.056C86.9301 38.372 86.7321 37.562 86.7321 36.626C86.7321 35.726 86.9181 34.928 87.2901 34.232C87.6741 33.524 88.2321 32.978 88.9641 32.594C89.6961 32.198 90.5661 32 91.5741 32C92.3901 32 93.0801 32.15 93.6441 32.45C94.2201 32.738 94.7421 33.152 95.2101 33.692L95.2281 28.184C95.2281 27.92 95.3001 27.716 95.4441 27.572C95.6001 27.416 95.8101 27.338 96.0741 27.338C96.3261 27.338 96.5241 27.416 96.6681 27.572C96.8121 27.716 96.8841 27.92 96.8841 28.184V40.334C96.8841 40.598 96.8121 40.808 96.6681 40.964C96.5241 41.108 96.3261 41.18 96.0741 41.18C95.8101 41.18 95.6001 41.108 95.4441 40.964C95.3001 40.808 95.2281 40.598 95.2281 40.334V39.452C94.3881 40.604 93.1581 41.18 91.5381 41.18ZM91.7181 39.794C92.8101 39.794 93.6681 39.512 94.2921 38.948C94.9161 38.372 95.2281 37.586 95.2281 36.59C95.2281 35.606 94.8981 34.826 94.2381 34.25C93.5781 33.674 92.7441 33.386 91.7361 33.386C90.6921 33.386 89.8761 33.68 89.2881 34.268C88.7001 34.856 88.4061 35.642 88.4061 36.626C88.4061 37.658 88.6941 38.444 89.2701 38.984C89.8581 39.524 90.6741 39.794 91.7181 39.794Z" fill="#057FB1" fill-opacity="0.8"/>
</svg>
