<svg width="20" height="20" viewBox="0 0 20 20" fill="none" xmlns="http://www.w3.org/2000/svg">
<path d="M9.71989 19.6761C9.36761 19.6761 9.05322 19.5862 8.7767 19.4063C8.50208 19.2244 8.28617 18.9659 8.12898 18.6307C7.97367 18.2936 7.89602 17.8892 7.89602 17.4176C7.89602 16.946 7.97462 16.5426 8.13182 16.2074C8.29091 15.8722 8.50871 15.6155 8.78523 15.4375C9.06174 15.2595 9.37519 15.1705 9.72557 15.1705C9.9964 15.1705 10.2142 15.2159 10.379 15.3068C10.5456 15.3958 10.6744 15.5 10.7653 15.6193C10.8581 15.7386 10.9301 15.8438 10.9813 15.9347H11.0324V13.7727H11.8818V19.5909H11.0523V18.9119H10.9813C10.9301 19.0047 10.8563 19.1108 10.7597 19.2301C10.665 19.3494 10.5343 19.4536 10.3676 19.5426C10.2009 19.6316 9.98504 19.6761 9.71989 19.6761ZM9.90739 18.9517C10.1517 18.9517 10.3581 18.8873 10.5267 18.7585C10.6972 18.6278 10.8259 18.447 10.9131 18.2159C11.0021 17.9849 11.0466 17.7159 11.0466 17.4091C11.0466 17.1061 11.003 16.8409 10.9159 16.6136C10.8288 16.3864 10.7009 16.2093 10.5324 16.0824C10.3638 15.9555 10.1555 15.892 9.90739 15.892C9.6517 15.892 9.43864 15.9583 9.26818 16.0909C9.09773 16.2235 8.96894 16.4044 8.88182 16.6335C8.79659 16.8627 8.75398 17.1212 8.75398 17.4091C8.75398 17.7008 8.79754 17.9631 8.88466 18.196C8.97178 18.429 9.10057 18.6136 9.27102 18.75C9.44337 18.8845 9.65549 18.9517 9.90739 18.9517ZM14.1749 19.679C13.7449 19.679 13.3747 19.5871 13.0641 19.4034C12.7554 19.2178 12.5167 18.9574 12.3482 18.6222C12.1815 18.285 12.0982 17.8902 12.0982 17.4375C12.0982 16.9905 12.1815 16.5966 12.3482 16.2557C12.5167 15.9148 12.7516 15.6487 13.0527 15.4574C13.3557 15.2661 13.7099 15.1705 14.1152 15.1705C14.3614 15.1705 14.6 15.2112 14.8311 15.2926C15.0622 15.3741 15.2696 15.5019 15.4533 15.6761C15.637 15.8504 15.7819 16.0767 15.8879 16.3551C15.994 16.6316 16.047 16.9678 16.047 17.3636V17.6648H12.5783V17.0284H15.2146C15.2146 16.8049 15.1692 16.607 15.0783 16.4347C14.9874 16.2604 14.8595 16.1231 14.6947 16.0227C14.5319 15.9224 14.3406 15.8722 14.1209 15.8722C13.8822 15.8722 13.6739 15.9309 13.4959 16.0483C13.3197 16.1638 13.1834 16.3153 13.0868 16.5028C12.9921 16.6884 12.9447 16.8902 12.9447 17.108V17.6051C12.9447 17.8968 12.9959 18.1449 13.0982 18.3494C13.2023 18.554 13.3472 18.7102 13.5328 18.8182C13.7184 18.9242 13.9353 18.9773 14.1834 18.9773C14.3444 18.9773 14.4911 18.9545 14.6237 18.9091C14.7563 18.8617 14.8709 18.7917 14.9675 18.6989C15.0641 18.6061 15.1379 18.4915 15.1891 18.3551L15.993 18.5C15.9286 18.7367 15.8131 18.9441 15.6464 19.1222C15.4817 19.2983 15.2743 19.4356 15.0243 19.5341C14.7762 19.6307 14.493 19.679 14.1749 19.679ZM18.2662 15.2273V15.9091H15.8003V15.2273H18.2662ZM16.4764 19.5909V14.7216C16.4764 14.4489 16.5361 14.2225 16.6554 14.0426C16.7747 13.8608 16.9329 13.7254 17.1298 13.6364C17.3268 13.5455 17.5408 13.5 17.7719 13.5C17.9423 13.5 18.0882 13.5142 18.2094 13.5426C18.3306 13.5691 18.4205 13.5938 18.4793 13.6165L18.2804 14.304C18.2406 14.2926 18.1895 14.2794 18.127 14.2642C18.0645 14.2472 17.9887 14.2386 17.8997 14.2386C17.6933 14.2386 17.5455 14.2898 17.4565 14.392C17.3694 14.4943 17.3259 14.642 17.3259 14.8352V19.5909H16.4764Z" fill="#A0BE3C"/>
<path d="M1.56522 0V11.5H5.73913" stroke="black" stroke-width="2"/>
<path d="M14.087 0V11.5H18.2609" stroke="black" stroke-width="2"/>
<path d="M3.65225 3.13635L7.82617 11.5L12.0001 3.13635" stroke="black" stroke-width="2"/>
</svg>
