<svg width="10" height="10" viewBox="0 0 10 10" fill="none" xmlns="http://www.w3.org/2000/svg">
<g id="cross" clip-path="url(#clip0_262_19836)">
<path id="Vector" d="M9.90875 8.03389L6.875 5.00014L9.90875 1.96639C9.94156 1.93358 9.965 1.89545 9.98031 1.85483C10.0219 1.74358 9.99813 1.61389 9.90875 1.52451L8.47563 0.0913891C8.38625 0.00201409 8.25625 -0.0214234 8.14531 0.0198266C8.10469 0.0348266 8.06656 0.0585766 8.03375 0.0910766L5 3.12483L1.96625 0.0910766C1.93344 0.0585766 1.89531 0.0348266 1.85469 0.0198266C1.74344 -0.0217359 1.61375 0.00201409 1.52438 0.0913891L0.0912518 1.52451C0.00187676 1.61389 -0.0215607 1.74389 0.0196893 1.85483C0.0350018 1.89545 0.0584393 1.93358 0.0912518 1.96639L3.125 5.00014L0.0912518 8.03389C0.0587518 8.0667 0.0350018 8.10483 0.0196893 8.14545C-0.0218732 8.25639 0.00187676 8.38639 0.0912518 8.47576L1.52438 9.90889C1.61375 9.99826 1.74375 10.0217 1.85469 9.98045C1.89531 9.96514 1.93344 9.9417 1.96625 9.90889L5 6.87514L8.03375 9.90889C8.06656 9.9417 8.10469 9.96514 8.14531 9.98045C8.25656 10.022 8.38625 9.99826 8.47563 9.90889L9.90875 8.47576C9.99813 8.38639 10.0219 8.25639 9.98031 8.14545C9.965 8.10483 9.94156 8.0667 9.90875 8.03389Z" fill="#A0BE3C"/>
</g>
<defs>
<clipPath id="clip0_262_19836">
<rect width="10" height="10" fill="white"/>
</clipPath>
</defs>
</svg>
