<svg width="20" height="20" viewBox="0 0 20 20" fill="none" xmlns="http://www.w3.org/2000/svg">
<g clip-path="url(#clip0_173_8787)">
<path d="M9.13044 5.77777H13.4783V7.55555H15.6522L17.8261 9.77777V15.5555L16.5217 16.4444H11.7391L7.82609 16L5.65218 16.4444H1.73914V12L3.04348 8.88888L5.65218 6.66666L9.13044 5.77777Z" fill="#8C8C8C"/>
<path d="M9.56521 6.66669H12.1739L11.7391 11.1111L10 10.2222H8.26087L6.52173 12.4445L6.08695 13.3334H5.21739L4.7826 14.2222L3.47826 12.8889V9.7778L5.65217 7.55558L9.56521 6.66669Z" fill="#D9D9D9"/>
<path d="M16.9565 10.6667H17.3913V15.5556L16.5217 16.4445H11.7391L7.82609 16L5.65218 16.4445H2.17392V12.8889H2.6087V15.5556L7.39131 14.6667L9.56522 12.8889L10.4348 11.1111L11.7391 11.5556L10.4348 14.6667L11.3044 15.1111H16.087L16.9565 10.6667Z" fill="#727272"/>
<path d="M14.3478 8.44446L16.5217 9.77779V15.1111L16.087 15.5556H11.7391L14.3478 8.44446Z" fill="#8D8D8D"/>
<path d="M8.69565 9.33331L10.4348 10.2222L10.8696 11.1111L9.13044 13.7778L7.39131 15.1111H5.65218L6.08696 12.4444L8.69565 9.33331Z" fill="#909090"/>
<path d="M4.34783 7.55554L4.78261 8.88888L3.91305 9.77776V12.8889L4.78261 13.7778L5.65218 13.3333V15.5555H2.6087L1.73914 16.4444V12L3.04348 8.88888L4.34783 7.55554Z" fill="#9E9E9E"/>
<path d="M9.56521 6.66669H12.1739L11.7391 11.1111L10 10.2222L9.13043 9.33335V7.11113L9.56521 6.66669Z" fill="#B9B9B9"/>
<path d="M14.3478 8.44446L16.087 10.2222L14.7826 11.1111L13.913 15.1111L11.7391 15.5556L14.3478 8.44446Z" fill="#D4D4D4"/>
<path d="M9.13043 5.77777H13.4783V7.99999H12.6087V6.66666L5.65217 7.99999L4.78261 8.44444L5.65217 6.66666L9.13043 5.77777Z" fill="#7F7F7F"/>
<path d="M13.4783 8.44446H14.3478L13.0435 13.3333L11.7391 15.5556L10 14.6667L10.8696 13.3333H11.7391L13.0435 8.8889L13.4783 8.44446Z" fill="#AFAFAF"/>
<path d="M3.04347 12L4.7826 13.7778L5.65217 13.3333V15.5556H3.04347V12Z" fill="#BBBBBB"/>
<path d="M16.087 9.77777H16.5217V12L15.2174 13.7778H14.3478V11.1111L16.087 9.77777Z" fill="#959595"/>
<path d="M10.4348 11.1111L11.7391 11.5555L11.3043 13.3333L9.13043 14.6666L8.26086 14.2222L9.99999 12L10.4348 11.1111Z" fill="#7C7C7C"/>
<path d="M7.82609 7.11108H9.13044V9.33331L7.39131 11.1111H6.52174L6.95653 9.77775H7.82609V7.11108Z" fill="#E9E9E9"/>
<path d="M5.21739 11.5555H6.08695V13.3333H5.21739L4.7826 14.2222L3.47826 12.8889V12L5.21739 11.5555Z" fill="#F3F3F3"/>
<path d="M4.34783 7.55554L4.78262 8.88888L3.47827 11.1111H2.6087L2.17392 12L2.6087 9.33332L4.34783 7.55554Z" fill="#979797"/>
<path d="M6.95652 6.22223H9.13043V7.11112L4.78261 8.44445L5.65217 6.66667L6.95652 6.22223Z" fill="#787878"/>
<path d="M13.0435 12.8889H13.913V15.1111L11.7391 15.5556L13.0435 12.8889Z" fill="#DBDBDB"/>
</g>
<defs>
<clipPath id="clip0_173_8787">
<rect width="20" height="20" fill="white"/>
</clipPath>
</defs>
</svg>
