<svg width="20" height="20" viewBox="0 0 20 20" fill="none" xmlns="http://www.w3.org/2000/svg">
<g clip-path="url(#clip0_173_8780)">
<path d="M12.6786 2.88287H13.3929L14.4643 4.5045V5.04504H14.8214L15.3571 5.94594L15.7143 6.12612L15.5357 6.66666H15.1786V13.1531H14.4643L14.1071 12.7928L12.5 13.1531L11.25 12.973L11.7857 12.7928L13.5714 12.6126H13.9286L13.75 12.0721L13.0357 11.7117L11.9643 12.0721L11.6071 11.8919L12.5 11.1712L11.25 11.5315L11.4286 11.8919L10.8929 12.0721L11.25 12.4324L10.5357 12.7928L10.7143 13.1531L8.57142 13.5135L7.67857 13.1531L7.49999 13.6937L6.07142 13.8739L3.92856 12.973V11.1712L3.39285 10.991L3.21428 8.82882L4.46428 7.74774L4.64285 7.02702L5.53571 6.3063L6.42857 5.4054L6.96428 4.68468L9.46428 4.32432L11.4286 3.42341H11.9643V3.06305L12.6786 2.88287Z" fill="#7F5714"/>
<path d="M14.4643 6.48651H15.3571L15.1786 13.1532H14.4643L14.1071 12.7928L12.5 13.1532L11.25 12.973L11.7857 12.7928L13.5714 12.6126H13.9286L13.75 12.0721L13.0357 11.7117L11.9643 12.0721L11.6071 11.8919L12.5 11.1712L11.25 11.5316L11.4286 11.8919L10.8929 12.0721L11.25 12.4325L10.5357 12.7928L10.7143 13.1532L8.57142 13.5135L7.67857 13.1532L7.5 13.6937L6.25 13.8739V10.991L5.89285 10.8108H6.25V10.2703L8.03571 9.72975L8.39285 9.54957L8.21428 10.0901V12.2523L8.75 12.4325V9.36939L8.92857 8.28831L10 8.10813L9.64285 8.46849H9.10714L9.46428 9.00903L10.3571 9.18921L10.5357 8.64867L12.1429 7.92795L13.5714 7.20723L10.7143 8.10813L10.1786 7.92795L12.1429 7.20723L14.4643 6.48651Z" fill="#4D340D"/>
<path d="M6.96428 4.68469L7.67856 5.04505L7.49999 7.92794L7.67856 6.30631H8.03571V7.20722H8.57142L8.74999 9.1892L8.03571 8.64866L8.21428 9.72974L7.14285 10.2703H6.24999V13.8739L3.92856 12.973V11.1712L3.39285 10.991L3.21428 8.82884L4.46428 7.74776L4.64285 7.02703L5.53571 6.30631L6.42856 5.40541L6.96428 4.68469Z" fill="#6A4C17"/>
<path d="M14.4643 6.48651H15.3571L15.1786 13.1532H14.4643L14.1071 12.7928L12.5 13.1532L11.25 12.973L11.7857 12.7928L13.5714 12.6126H13.9286L13.75 12.0721L13.0357 11.7117L11.9643 12.0721L11.6071 11.8919L12.6786 11.1712H13.0357V10.8108L12.3214 10.6307L12.6786 10.4505L13.0357 9.72975L12.8571 9.36939H13.2143V9.00903L12.3214 8.82885V9.18921H11.9643V8.82885L11.6071 8.46849H11.9643L12.1429 7.92795L13.5714 7.20723L10.7143 8.10813L10.1786 7.92795L12.1429 7.20723L14.4643 6.48651Z" fill="#4A3513"/>
<path d="M15.1786 6.66669H15.3571L15.5357 9.36939V13.1532L15.3571 13.3334L10.1786 13.6937L9.82143 13.8739H6.60715V13.6937L7.5 13.5135L7.67858 13.1532L9.10715 13.3334L10.1786 12.973L10.8929 12.4325V11.8919L11.25 11.7117L11.0714 11.3514L13.0357 10.991L12.1429 11.7117L13.0357 11.5316L13.5714 11.7117L13.9286 12.0721V12.6126L12.1429 12.973L13.75 12.7928L14.2857 12.6126L14.4643 13.1532H15.1786V6.66669Z" fill="#C5C3BC"/>
<path d="M6.78571 5.76575H7.32143L7.5 6.12611V7.92791L7.67857 6.30629H8.03571V7.20719H8.57143L8.75 9.18917L8.03571 8.64863L8.21429 9.72971L7.67857 10.0901H6.25L5.53571 8.82881L5.35714 8.28827L5 7.92791H6.25V6.12611L6.78571 5.76575Z" fill="#C2910D"/>
<path d="M13.9286 8.64862L14.4643 8.8288L14.8214 9.36934V10.2702H15.1786V13.1531H14.4643L14.1071 12.7928L12.5 13.1531L11.25 12.9729L11.7857 12.7928L13.5714 12.6126H13.9286L13.75 12.072L13.0357 11.7117L11.9643 12.072L11.6071 11.8919L13.2143 10.991L13.5714 8.8288L13.9286 8.64862Z" fill="#7D6F4F"/>
<path d="M12.3214 8.82886L13.2143 9.00904L13.0357 9.90994L12.6786 10.4505L13.0357 10.6307V10.991L11.25 11.5316L11.4286 11.8919L10.8929 12.0721L11.25 12.4325L10.1786 12.7928L9.46428 12.4325L10.1786 12.2523V10.8108L10.3571 10.4505H9.99999L10.1786 9.72976H10.5357V9.3694L11.4286 9.00904L12.3214 9.18922V8.82886Z" fill="#6B5645"/>
<path d="M11.9643 3.06305L12.5 3.24323L13.3929 4.68467L13.2143 4.86485L13.75 5.04503L11.4286 6.12611L10.8929 5.94593L10.7143 5.58557L10.3571 5.40539L10.5357 5.22521L9.46428 4.50449L9.64285 4.14413L11.4286 3.42341H11.9643V3.06305Z" fill="#7B500D"/>
<path d="M5 8.64862L5.71428 9.54952L5.89285 10.6306L5.17857 10.8108L4.46428 12.4324L4.10714 12.6126L3.92857 11.1711L3.39285 10.991V9.18916L3.92857 9.36934L4.28571 10.2702V9.7297L4.64285 9.00898L5 8.64862Z" fill="#96722B"/>
<path d="M12.5 10.991L13.0357 11.1711L11.9643 11.8919L13.5714 11.5315L13.9286 12.072V12.6126L12.1429 12.9729L11.6071 13.1531L10.7143 13.3333V12.9729L10.1786 12.7928L10.8929 12.4324V11.8919L11.25 11.7117L11.0714 11.3513L12.5 10.991Z" fill="#A49B7F"/>
<path d="M6.96428 4.68469L7.67856 5.04505V5.94595L7.32142 6.12613V5.76577L6.24999 6.12613V7.92794H4.46428L4.64285 7.02703L5.53571 6.30631L6.42856 5.40541L6.96428 4.68469Z" fill="#825A1C"/>
<path d="M7.67857 6.30634H8.03572V7.20724H8.57143L8.75 9.18922L8.03572 8.64868L8.21429 9.72976L7.67857 10.0901H6.42857V9.72976H6.78572V9.3694L7.14286 9.18922L7.5 8.10814L7.67857 6.30634Z" fill="#AC7A20"/>
<path d="M13.5714 8.82886H14.1071L14.6429 9.90994H13.9286L14.2857 10.991V12.4325H13.9286L13.75 12.0721L13.0357 11.7117L11.9643 12.0721L11.6071 11.8919L13.2143 10.991L13.5714 8.82886Z" fill="#735823"/>
<path d="M14.4643 6.48651H15.3571L15.1786 7.38741L15 7.02705L13.9286 7.56759L13.3929 8.64867L12.5 8.46849L12.6786 8.10813L11.9643 8.28831L12.5 7.74777L13.5714 7.20723L10.7143 8.10813L10.1786 7.92795L12.1429 7.20723L14.4643 6.48651Z" fill="#4D2805"/>
<path d="M4.46428 13.1531L5.35714 13.3333L6.07142 13.6937H9.82142L10.1786 13.5135L15.5357 13.1531V13.5135L7.85714 14.2342H6.07142L4.46428 13.5135V13.1531Z" fill="#E8E8E7"/>
<path d="M12.5 5.76575L13.3929 5.94593V6.48647L13.75 6.84683L10.5357 7.92791L9.82144 7.74773L9.64286 7.02701L9.28572 6.66665L10 6.84683L10.3571 7.38737L11.7857 7.20719L11.25 6.30629L12.5 5.76575Z" fill="#8D672E"/>
<path d="M6.78571 10.6306H7.14286L7.32143 11.8919H7.5V12.7928L6.96429 13.5135H6.60714V13.8739H6.25V10.991L6.78571 10.6306Z" fill="#564219"/>
<path d="M14.6429 5.04504L15.3571 5.94594L15.7143 6.12612L15.5357 6.66667H13.0357L13.3929 6.12612L12.8571 5.58558L14.4643 5.22522L14.6429 5.04504Z" fill="#744F0B"/>
<path d="M12.3214 8.82886L13.2143 9.00904L13.0357 9.90994L12.6786 10.4505L13.0357 10.6307L11.25 10.991L10.8929 10.4505L11.4286 10.2703V9.54958H11.9643V9.18922H12.3214V8.82886Z" fill="#564436"/>
<path d="M13.5714 7.02704L14.1071 7.20722L11.9643 8.2883L10.5357 8.82884L10.3571 9.1892H9.46429L9.10715 8.46848L9.82143 8.10812L10.1786 7.92794L12.1429 7.56758L13.5714 7.02704Z" fill="#704B18"/>
<path d="M12.6786 2.88287H13.3929L14.4643 4.5045V4.86486L13.0357 5.04504V4.32431L12.5 3.60359V3.24323L12.1429 3.06305L12.6786 2.88287Z" fill="#6D4A16"/>
<path d="M7.14285 4.68469H8.57142L9.28571 5.76577V6.12613L9.82142 6.30631L9.10714 6.66667L8.39285 6.48649L7.5 5.04505L7.14285 4.68469Z" fill="#5E3C09"/>
<path d="M7.85715 8.46844L8.39286 8.82881L8.75 9.90989V12.4324L8.03572 12.2522V10.0901L8.21429 9.54953L7.85715 9.00899V8.46844Z" fill="#72450D"/>
<path d="M6.78571 5.76575H7.32143L7.5 6.12611V7.56755L7.14286 7.74773H6.25V6.12611L6.78571 5.76575Z" fill="#AF7E19"/>
<path d="M8.21428 9.54956V10.0901V12.4324H7.67857V10.8108L5.89285 10.991L6.25 10.8108V10.2703L8.03571 9.72974L8.21428 9.54956Z" fill="#3F2305"/>
<path d="M5.35715 10.8108L6.25 10.991V13.5135L5.53572 13.3333L5.35715 10.8108Z" fill="#957327"/>
<path d="M5.17857 11.7117H5.35715L5.71429 13.3334L6.25 13.5135L6.07143 13.8739L3.92857 12.973V12.6126L4.64286 11.8919L5.17857 11.7117Z" fill="#5C4D22"/>
<path d="M7.5 8.28827L8.03572 8.46845L8.21429 9.72971L7.67857 10.0901H6.42857V9.72971H6.78572V9.36935L7.14286 9.18917L7.5 8.28827Z" fill="#A56C0C"/>
<path d="M11.9643 3.06305L12.5 3.24323L13.3929 4.68467L13.2143 4.86485L13.75 5.04503L12.1429 5.58557L12.3214 4.68467V4.14413L11.9643 3.60359V3.06305Z" fill="#85632E"/>
<path d="M10.1786 3.96399L10.8929 4.86489H11.4286H11.7857L11.6071 5.58561L12.1429 5.76579L11.4286 6.12615L10.8929 5.94597L10.7143 5.58561L10.3571 5.40543L10.5357 5.22525L9.46428 4.50453L9.64285 4.14417L10.1786 3.96399Z" fill="#8E6221"/>
<path d="M6.42857 7.56757L7.32143 7.74775V8.10811L6.60714 8.28829V8.64865H6.25V9.00901L5.71429 9.18919L5.35714 8.28829L5 7.92793L6.25 7.74775L6.42857 7.56757Z" fill="#E4C030"/>
<path d="M13.9286 8.64862L14.4643 8.8288L14.8214 9.36934L14.6429 12.2522L14.2857 11.8919L14.1071 10.8108H13.9286V9.90988L14.4643 9.7297L13.9286 8.64862Z" fill="#957633"/>
<path d="M11.4286 9.00903H11.9643V9.54957H11.4286V10.2703L11.0714 10.4505H10L10.1786 9.72975H10.5357V9.36939L11.4286 9.00903Z" fill="#8F5116"/>
<path d="M13.75 4.86487L14.6429 5.04505L14.4643 5.40541L12.8571 5.76577L11.4286 6.48649L11.7857 7.20721H11.4286L10.7143 6.30631L13.75 4.86487Z" fill="#5B3606"/>
<path d="M5.00001 8.64862L5.71429 9.54952L5.89286 10.2702L5.00001 10.0901L4.28572 9.7297L4.64286 9.00898L5.00001 8.64862Z" fill="#B78A31"/>
<path d="M4.99999 6.66669H5.89285V7.74777L4.46428 7.92795L4.64285 7.02705L4.99999 6.66669Z" fill="#8A6831"/>
<path d="M10.3571 11.3514L11.25 11.5316L11.4286 11.8919L10.8929 12.0721L11.25 12.4325L10.1786 12.7928L9.46428 12.4325L10.1786 12.2523L10.3571 11.3514Z" fill="#853F1C"/>
<path d="M13.75 7.20721L14.2857 7.38739L13.75 7.92794L13.3929 8.64866L12.5 8.46848L12.6786 8.10812L11.9643 8.2883L12.5 7.74775L13.75 7.20721Z" fill="#34230B"/>
<path d="M9.64286 4.50452L10.7143 5.04506V5.40542L11.0714 5.5856V6.12614L10.3571 6.30632L9.28572 4.6847L9.64286 4.50452Z" fill="#7D5010"/>
<path d="M6.42857 10.8108H6.78571V13.1531H6.42857L6.25 13.5135V10.991L6.42857 10.8108Z" fill="#523C0E"/>
<path d="M11.25 8.28827L11.9643 8.46845V9.00899L11.25 9.36935H10.5357V9.72971L10.1786 9.54953L10.5357 8.64863L11.25 8.28827Z" fill="#593508"/>
<path d="M14.6429 5.04504L15.3571 5.94594L15.7143 6.12612L15.5357 6.66667H13.75L14.1071 6.48649V6.12612H14.4643L14.6429 5.04504Z" fill="#785F34"/>
<path d="M12.5 10.991L13.0357 11.1711L11.9643 11.8919L12.5 12.072L11.25 12.4324L10.7143 12.072L11.25 11.7117L11.0714 11.3513L12.5 10.991Z" fill="#9B875C"/>
<path d="M13.3929 9.90991H13.5714L13.75 11.5315L11.9643 12.0721L11.6071 11.8919L13.2143 10.991L13.3929 9.90991Z" fill="#604E2A"/>
<path d="M7.67857 5.22522L8.03571 5.4054L8.57143 6.48648V6.84684H8.21428L7.67857 6.3063V8.1081L7.32143 7.92792L7.5 5.4054L7.67857 5.22522Z" fill="#825609"/>
<path d="M7.67858 13.1531L9.10715 13.3333L10.1786 13.1531L9.46429 13.6937L6.60715 13.8739V13.6937L7.5 13.5135L7.67858 13.1531Z" fill="#A5A499"/>
<path d="M10.8929 3.60358L11.6071 4.50448L11.25 5.2252L10.3571 4.3243L10.5357 3.78376L10.8929 3.60358Z" fill="#835814"/>
<path d="M8.75 9.36938H8.92857L9.28571 10.991V12.0721L9.10714 12.4324H8.75V9.36938Z" fill="#533506"/>
<path d="M5.35715 8.28827L5.71429 8.82881L6.25 9.90989L7.14286 10.0901V10.2703H6.25V10.8108H5.89286V10.4504L5.53572 10.2703H5.89286L5.17857 9.00899L5.35715 8.28827Z" fill="#835B1B"/>
<path d="M9.28572 8.10809L10 8.28827L9.10715 8.46845L9.82143 9.72971V10.0901H8.92857V8.28827L9.28572 8.10809Z" fill="#452706"/>
<path d="M9.46428 12.6126H10.1786V12.973L10.7143 13.1532L8.57142 13.5135L8.21428 13.1532L9.46428 12.6126Z" fill="#3F331C"/>
<path d="M13.2143 8.82886H13.3929V11.1712L12.3214 10.8108L13.0357 9.72976L12.8571 9.3694H13.2143V8.82886Z" fill="#392A1A"/>
<path d="M6.96428 4.68469L7.67857 5.04505V5.94595L7.32143 6.12613V5.76577L6.78571 5.58559L6.07143 5.94595L6.96428 4.68469Z" fill="#8C6E37"/>
<path d="M4.46428 13.1531L5.35714 13.3333L6.07142 13.6937L7.67856 13.8739V14.054H5.71428L4.46428 13.5135V13.1531Z" fill="#CECAC2"/>
<path d="M11.6071 12.4324L12.6786 12.6126L12.1429 12.973L11.6071 13.1532L10.7143 13.3333V12.973L10.1786 12.7928L11.6071 12.4324Z" fill="#A9A48F"/>
<path d="M8.57142 7.38739L8.92857 7.56757V7.92793H9.82142L9.28571 8.28829H8.92857L8.75 9.90991L8.39285 9.36937L8.57142 8.10811V7.38739Z" fill="#8E6325"/>
<path d="M3.39285 9.18921L3.92857 9.36939L4.10714 10.4505L3.39285 10.991V9.18921Z" fill="#A78E5D"/>
<path d="M7.85715 4.86487H8.39286L9.10715 5.94595V6.30631L9.64286 6.12613L9.82143 6.48649L8.92858 6.66667L7.85715 4.86487Z" fill="#744E0B"/>
<path d="M11.0714 3.60358H11.4286L12.3214 5.40538L11.4286 5.76574L11.6071 4.86484L11.0714 3.96394V3.60358Z" fill="#73490A"/>
<path d="M11.9643 3.06305L12.5 3.24323L13.3929 4.68467L12.5 4.50449L11.9643 3.60359V3.06305Z" fill="#895E1C"/>
<path d="M12.3214 8.82886L13.2143 9.00904V9.72976L11.9643 9.54958V9.18922H12.3214V8.82886Z" fill="#6C6162"/>
<path d="M8.75 4.50452H9.64286V5.04506L10.1786 5.76578V6.12614L9.64286 5.94596L8.75 4.50452Z" fill="#6C4608"/>
<path d="M5.17857 11.7117H5.35714L5.71429 13.3334L6.25 13.5135L6.07143 13.8739L5 13.3334V11.8919L5.17857 11.7117Z" fill="#6B5323"/>
<path d="M15 7.74774H15.1786V10.2703L15 11.1712H14.8214L14.6429 10.0901L15 7.74774Z" fill="#564426"/>
<path d="M5.89286 8.10809H6.96429L6.60715 8.28827V8.64863H6.25001V9.00899L5.71429 9.18917L5.53572 8.64863L5.89286 8.10809Z" fill="#DDB017"/>
<path d="M7.67858 12.6126L8.21429 12.7928L8.03572 13.1532H7.67858L7.5 13.6937H6.60715L7.14286 12.973H7.67858V12.6126Z" fill="#312610"/>
<path d="M9.10715 8.46844H10L10.3571 9.18917H9.46429L9.10715 8.46844Z" fill="#75591D"/>
<path d="M13.5714 3.4234L14.2857 4.3243L14.4643 4.86484H13.75L13.5714 4.50448V3.4234Z" fill="#6D5739"/>
<path d="M12.6786 7.92792L13.0357 8.1081L12.6786 8.82882H12.3214V9.18918H11.9643V8.82882L11.6071 8.46846L12.6786 7.92792Z" fill="#563719"/>
<path d="M6.78572 5.76575H7.32144L7.50001 6.48647L7.32144 7.38737L7.14286 6.66665H6.78572V5.76575Z" fill="#C8972C"/>
<path d="M10.1786 12.0721L11.25 12.2523L10.5357 12.7928L9.46428 12.6126L10.1786 12.0721Z" fill="#5E4729"/>
<path d="M11.25 6.30634L12.1429 6.48652L12.6786 7.20724L11.9643 7.38742L11.25 6.30634Z" fill="#94631E"/>
<path d="M7.5 4.86487L8.21429 5.22523L8.92857 6.66667L8.39286 6.48649L7.5 4.86487Z" fill="#694205"/>
<path d="M4.10715 11.1711H4.64286L4.46429 12.4324L4.10715 12.6126V11.1711Z" fill="#AA9156"/>
<path d="M4.28572 6.84686L4.82143 7.02704L4.46429 7.92794L3.92857 8.2883L4.10715 7.02704L4.28572 6.84686Z" fill="#EDE9D6"/>
<path d="M14.4643 6.48651H15.3571L15.1786 7.38741L15 7.02705L14.2857 7.20723L14.1071 6.66669L14.4643 6.48651Z" fill="#352206"/>
<path d="M12.5 5.76575H12.8571L13.0357 6.30629H12.6786L12.5 6.66665L11.6071 6.30629L11.9643 5.94593L12.5 5.76575Z" fill="#7C4F10"/>
<path d="M14.6429 5.04504L15.3571 5.94594L15 6.30631H14.4643L14.6429 5.04504Z" fill="#6F573A"/>
<path d="M13.3929 5.4054L14.1071 6.3063L13.75 6.66666L13.0357 6.48648L13.3929 6.12612L12.8571 5.58558L13.3929 5.4054Z" fill="#6D470D"/>
<path d="M11.7857 10.8108H13.0357L12.5 11.1712L11.25 11.3513V10.991L11.7857 10.8108Z" fill="#77634E"/>
<path d="M10.1786 9.72974H10.5357L10.7143 10.0901L11.25 9.90992L11.0714 10.4505H10L10.1786 9.72974Z" fill="#8C5A27"/>
<path d="M6.60714 8.28827H6.96428L6.78571 9.00899L6.07142 9.36935L5.89285 9.00899H6.25V8.64863H6.60714V8.28827Z" fill="#CDA005"/>
<path d="M8.21428 7.92792L8.74999 8.1081V9.18918L8.21428 8.82882V7.92792Z" fill="#C9983C"/>
</g>
<defs>
<clipPath id="clip0_173_8780">
<rect width="20" height="20" fill="white"/>
</clipPath>
</defs>
</svg>
