<svg width="20" height="20" viewBox="0 0 20 20" fill="none" xmlns="http://www.w3.org/2000/svg">
<g clip-path="url(#clip0_173_8783)">
<path d="M11.3178 3.87598L12.2481 4.03102L12.4031 4.18605V5.42636L13.0233 5.27133L12.8682 4.49613L13.4884 4.34109L13.9535 4.49613V4.80621H14.2636L14.4186 5.42636L15.0388 6.04652L15.5039 6.3566L15.3488 7.59691L15.814 8.99226V9.92249H15.5039V10.2326L16.2791 10.5426L16.8992 10.8527V11.3178H16.4341V12.093L16.8992 12.2481V12.5581L16.4341 13.0233L15.814 13.3333L15.5039 14.4186L13.3333 15.969L12.4031 16.5892H11.4729L10.5426 16.124L9.61241 15.969L8.99225 15.1938L8.68217 14.5737L8.21706 14.4186L7.44186 13.9535L6.20155 13.7985L6.04651 13.3333L5.27132 13.0233L4.34109 12.5581L3.87597 12.2481L3.72093 10.5426L3.5659 9.76745L4.03101 9.45737L4.18605 8.99226L4.96124 8.52714L5.5814 7.90698L5.73644 7.44187L6.66667 7.59691L6.51163 7.13179L6.97675 6.97675L6.51163 6.82171H7.28682V5.5814L7.5969 5.42636L7.75194 4.03102H9.61241L10.6977 4.65117L11.0078 4.03102L11.3178 3.87598Z" fill="#7B603C"/>
<path d="M11.3178 3.87598L12.2481 4.03102L12.4031 4.18605V5.42636L13.0233 5.27133L12.8682 4.49613L13.4884 4.34109L13.9535 4.49613V4.80621H14.2636L14.7287 6.3566L13.7985 6.20156L13.6434 6.66667H13.3333L13.1783 7.44187L12.2481 9.45737H11.938L11.6279 10.3876L11.0078 11.3178L10.2326 11.4729L10.0775 10.8527L9.6124 11.0078L8.99225 10.6977L8.37209 9.61241L8.21706 9.14729H7.90698V9.61241H6.97675L6.35659 9.14729V8.21706L7.13178 7.44187L7.28682 5.5814L7.5969 5.42636L7.75194 4.03102H9.6124L10.6977 4.65117L11.0078 4.03102L11.3178 3.87598Z" fill="#F9D531"/>
<path d="M6.51163 6.82172H7.28682L7.13179 7.75195L6.51163 8.21707V8.99226L7.13179 9.45738H7.75194L7.90698 8.99226L8.68217 9.76745L9.14729 10.6977L10.0775 10.8527L10.2326 11.4729L9.30233 11.1628L8.3721 11.0078L7.90698 11.1628L7.75194 11.4729L8.52713 11.783L8.3721 12.8682L7.13179 12.4031L7.28682 11.3178H7.5969V10.8527H7.13179L7.28682 10.5426L6.82171 10.2326L7.13179 11.783V13.6434H6.35659V12.5582H6.04651L6.20155 13.0233L5.5814 13.1783L4.34109 12.5582L3.87597 12.2481L3.72093 10.5426L3.5659 9.76745L4.03101 9.45738L4.18605 8.99226L4.96124 8.52714L5.5814 7.90699L5.73644 7.44187L6.66667 7.59691L6.51163 7.13179L6.97675 6.97676L6.51163 6.82172Z" fill="#66430F"/>
<path d="M14.4186 5.58142L14.8837 5.73646L15.0388 6.20158L15.5039 6.35661L15.3488 7.59693L15.814 8.99227V9.92251H15.5039V10.2326L16.2791 10.5427L16.8992 10.8527V11.3179H16.4341V12.093L16.8992 12.2481V12.5582L16.4341 12.7132H16.124L15.1938 13.3334L15.3488 14.2636L14.8837 14.4186L14.7287 13.9535H14.1085L14.7287 14.5737L13.7985 15.0388V14.7287L13.0233 14.5737L12.7132 14.2636L13.1783 14.1086L13.0233 13.6434L12.5581 14.1086L12.4031 14.7287H12.093L11.938 13.9535L12.5581 13.4884L12.093 13.6434V12.5582L12.2481 12.4031H11.938V12.8682L11.4729 12.7132L11.6279 11.3179L11.938 11.6279L11.7829 12.093L12.7132 11.938V11.6279L12.4031 11.4729L14.2636 11.6279L14.4186 11.1628L14.5736 11.938H14.1085L13.6434 12.093L13.4884 12.5582H13.0233V12.8682H13.3333L13.4884 13.4884L13.3333 13.9535L14.5736 13.3334L14.7287 10.6977V9.45739L14.1085 9.61243L14.5736 10.3876L14.2636 11.0078L13.9535 10.8527V11.1628L13.3333 11.3179V11.0078H13.0233V10.3876L12.4031 10.5427L12.093 10.0775L12.7132 9.92251L13.0233 10.0775V9.61243L14.4186 9.14731L14.5736 8.37212L15.0388 8.21708H14.1085V7.59693L14.5736 7.44189H13.6434L13.4884 8.06204H13.0233V8.52716H12.7132L12.8682 7.907L13.3333 6.66669H13.6434L13.7985 6.04654L14.5736 6.20158L14.4186 5.58142Z" fill="#725126"/>
<path d="M11.3178 3.87598L12.2481 4.03102L12.4031 4.18605V5.42636L13.0233 5.27133L12.8682 4.49613L13.4884 4.34109L13.9535 4.49613V4.80621H14.2636L14.4186 5.5814H13.9535V5.89148L13.1783 6.04652L13.0233 6.51164H12.7132L12.093 7.28683L10.8527 7.59691L9.76744 7.28683L9.92248 6.66667L10.2326 5.89148H10.5426V5.27133L9.76744 4.96125V4.65117L9.45736 4.49613V4.18605H8.52713V4.49613L8.21705 4.80621L7.90697 5.73644L7.44186 6.82171L7.28682 6.3566V5.5814L7.5969 5.42636L7.75194 4.03102H9.6124L10.6977 4.65117L11.0078 4.03102L11.3178 3.87598Z" fill="#966915"/>
<path d="M8.52713 4.18604H9.45737V4.49611L10.0775 4.65115H9.76744L10.2326 5.11627L10.5426 5.27131V5.89146L10.2326 6.0465L9.92248 6.82169L9.45737 7.28681L8.99225 8.21704L8.83721 9.30231L8.52713 9.14728L8.37209 8.37208L7.75194 8.21704L7.5969 7.90697L6.97675 8.68216L6.82171 8.52712L6.35659 9.14728V8.21704L7.13178 7.44185L7.75194 5.73642L8.21706 4.49611H8.52713V4.18604Z" fill="#FAE345"/>
<path d="M7.75194 8.99225L8.21705 9.14729L8.99225 10.2326L9.30232 10.6977L10.0775 10.8527L10.2326 11.4729L9.30232 11.1628L8.37209 11.0078L7.90698 11.1628L7.75194 11.4729L8.52713 11.7829L8.37209 12.8682L7.13178 12.4031L7.28682 11.3178H7.5969V10.8527H7.13178L7.28682 10.5426L6.8217 10.2326L7.13178 11.7829V13.6434H6.35659V12.5581H6.04651L6.20155 13.0233L5.58139 13.1783L4.34108 12.5581L4.03101 12.093L4.34108 11.938L4.49612 11.4729H5.27132L5.11628 10.6977H5.42635L5.73643 11.938H5.89147H6.35659L6.20155 11.3178L5.58139 11.1628L5.73643 10.6977L6.51163 11.0078L6.66667 13.3333V9.45736H7.75194V8.99225Z" fill="#7B6535"/>
<path d="M15.3488 10.0775L16.8992 10.8527V11.3178H16.4341V12.093L16.8992 12.2481V12.5581L16.4341 12.7132H16.124L15.1938 13.3333L15.3488 14.2636L14.8837 14.4186L14.7287 13.9535H14.1085L14.7287 14.5736L13.7985 15.0388V14.7287L13.0233 14.5736L12.7132 14.2636L13.1783 14.1085L13.0233 13.6434L12.5581 14.1085L12.4031 14.7287H12.093L11.938 13.9535L12.5581 13.4884L12.093 13.6434V12.5581L12.2481 12.4031H11.938V12.8682L11.4729 12.7132L11.6279 11.3178L11.938 11.6279L11.7829 12.093L12.7132 11.938V11.6279L12.4031 11.4729L14.2636 11.6279L14.4186 11.1628L14.5736 11.938H14.1085L13.6434 12.093L13.4884 12.5581H13.0233V12.8682H13.3333L13.4884 13.4884L13.3333 13.9535L14.7287 13.1783L15.0388 12.7132L15.5039 12.8682V11.6279H15.1938L15.3488 11.1628L15.814 11.0077L15.969 10.6977L15.1938 10.3876L15.3488 10.0775Z" fill="#553D27"/>
<path d="M14.1085 9.45734H14.7287L14.8837 11.6279L14.7287 13.4883L13.9535 13.7984L13.3333 13.9535V12.8682H13.0233V12.5581H13.4884L13.6434 11.938L14.2636 11.7829L14.4186 11.938V11.3178L14.2636 11.6279H12.7132V11.938L11.6279 12.248V11.7829L11.4729 11.1628L11.7829 10.5426H12.4031L13.0233 10.3876V11.0077H13.3333V11.3178L13.9535 11.1628L13.7985 10.6976H14.4186L14.2636 9.92245L13.9535 9.61238L14.1085 9.45734Z" fill="#AD9D93"/>
<path d="M6.82171 10.2325L7.5969 10.5426L7.13178 10.8527H7.5969V11.3178H7.28682V12.4031H7.75194V12.7132H8.21705L8.37209 11.938L9.30233 12.248V13.4884L10.0775 13.6434L10.2326 13.9535L9.14729 14.1085L8.52713 14.5736L7.90698 14.2636L7.44186 13.9535L6.20155 13.7984L6.04651 13.3333H5.73643V13.0232L6.04651 12.8682V12.5581H6.35659V13.6434L6.97674 13.4884V11.4729L6.82171 11.1628V10.2325Z" fill="#C4B487"/>
<path d="M13.9535 5.58142L14.5736 5.73646L14.7287 6.35661L13.7985 6.20158L13.6434 6.66669H13.3333L13.1783 7.44189L12.2481 9.45739H11.938L11.6279 10.3876L11.0078 11.3179L10.2326 11.4729L10.0775 10.8527L9.6124 11.0078L8.99225 10.6977V10.3876H9.30233L9.45736 9.76747L9.6124 8.6822L9.92248 8.99227L10.2326 10.2326L10.3876 10.8527H10.6977V10.5427L11.0078 10.3876L11.4729 8.99227L11.938 8.21708L12.7132 7.28685L12.8682 6.97677L12.5581 6.82173L12.7132 6.20158V6.51165L13.1783 6.04654L13.9535 5.8915V5.58142Z" fill="#E7AA1F"/>
<path d="M16.2791 12.4031L16.4341 13.0232L15.814 13.3333L15.5039 14.4186L13.3333 15.969L12.4031 16.5891H11.4729L10.5426 16.124L9.6124 15.969V15.6589L10.3876 15.3488L10.8527 15.6589H11.3178L11.4729 15.3488L12.2481 15.1938L12.4031 14.8837L13.1783 15.1938L12.4031 15.8139H12.093L12.2481 16.124L12.8682 15.969L13.0233 15.5039L13.7985 15.3488L13.9535 14.8837L14.5736 14.4186L13.9535 13.9535L14.7287 13.7984L15.0388 14.2635H15.3488L15.0388 13.3333L16.2791 12.4031Z" fill="#D7D4D0"/>
<path d="M7.75194 4.03101H9.6124L10.3876 4.49612L10.8527 4.96124V6.04651L11.938 6.35659V6.66667L12.2481 6.8217L11.7829 7.13178H11.0077L10.5426 6.97674V7.28682L11.1628 7.44186L10.8527 7.5969L9.76744 7.28682L9.92248 6.66667L10.2326 5.89147H10.5426V5.27132L9.76744 4.96124V4.65116L9.45736 4.49612V4.18604H8.52713V4.49612L8.21705 4.8062L7.90697 5.73643L7.44186 6.8217L7.28682 6.35659V5.58139L7.5969 5.42636L7.75194 4.03101Z" fill="#F4C130"/>
<path d="M8.68217 11.3178L9.14729 11.4728L8.99225 11.938L9.6124 12.093V12.4031H10.2326L10.5426 13.9535V15.5039L9.45736 15.6589L8.99225 15.1938L8.68217 14.4186L9.14729 13.9535L10.0775 13.7984L9.45736 13.6434L8.99225 13.4884H9.30232L9.14729 12.5581L9.30232 12.248L8.52713 12.093L8.83721 11.938L8.68217 11.3178Z" fill="#634D2F"/>
<path d="M7.75194 8.99225L8.21706 9.14729L8.99225 10.2326L9.30233 10.6977L10.0775 10.8527L10.2326 11.4729L9.30233 11.1628L8.37209 11.0078L7.90698 11.1628L7.75194 11.4729L8.52713 11.7829L8.37209 12.8682L7.13178 12.4031L7.28682 11.3178H7.5969V10.8527H7.13178L7.28682 10.5426L7.5969 10.0775L6.97675 9.76744L7.13178 9.45736H7.75194V8.99225Z" fill="#DA9D18"/>
<path d="M9.30233 5.42633L10.0775 5.58137L9.6124 6.97672L8.99225 8.21703L8.83721 9.3023L8.52713 9.14726L8.37209 8.37207L7.75194 8.06199L8.06202 6.5116H8.37209L8.52713 6.20152H8.83721L9.14729 5.58137L9.30233 5.42633Z" fill="#FDEA4C"/>
<path d="M8.21705 10.8527L9.30233 11.0078L9.92248 11.1628V11.4729H10.8527V14.7287L10.6977 15.5039H10.5426L10.2326 13.1783V12.4031H9.6124V12.093L8.99225 11.938L8.83721 11.4729V11.938L8.06202 11.6279L7.75194 11.4729L7.90698 11.0078L8.21705 10.8527Z" fill="#D0B477"/>
<path d="M12.4031 6.82172L13.0233 6.97676L12.4031 7.90699L11.7829 8.52714H11.4729L11.1628 9.1473L10.6977 9.76745L10.3876 9.61241L10.0775 8.83722V7.90699L10.3876 7.44187L11.7829 7.28683L12.4031 6.82172Z" fill="#FDEC4E"/>
<path d="M14.5736 8.37207H15.0388L15.1938 9.14726L15.0388 9.3023L15.3488 9.45734L15.1938 10.0775L14.7287 9.92246V9.45734L14.1085 9.61238L14.5736 10.3876L14.2636 11.0077L13.9535 10.8527V11.1628L13.3333 11.3178V11.0077H13.0233V10.3876L12.4031 10.5426L12.093 10.0775L12.7132 9.92246L13.0233 10.0775V9.61238L14.4186 9.14726L14.5736 8.37207Z" fill="#5B3D1A"/>
<path d="M6.20155 8.83722L6.66667 8.99226L6.82171 9.45737V13.4884L6.51163 13.3333V11.0078L5.73643 10.8527L5.5814 11.1628L6.35659 11.3178V11.938L5.42636 12.2481L5.5814 11.783L5.42636 11.6279V10.6977L5.11628 10.5426L6.04651 9.45737L6.20155 9.30234V8.83722Z" fill="#AD854B"/>
<path d="M14.8837 9.14728L15.6589 9.30232L15.5039 10.0775L15.3488 10.3876L15.969 10.6977L15.814 11.1628L15.3488 11.3178L15.1938 11.6279H15.5039V12.8682H15.0388L14.7287 13.1783V9.92247H15.1938L15.3488 9.45736L14.8837 9.30232V9.14728Z" fill="#7E6143"/>
<path d="M8.37209 11.938L9.30232 12.2481V13.4884L10.0775 13.6434L10.2326 13.9535L9.14728 14.1085L8.68217 14.4186L8.06201 14.1085L7.90697 13.6434L8.37209 13.1783L7.90697 13.0233L8.37209 12.8682V11.938Z" fill="#9B9679"/>
<path d="M4.03101 12.248L5.27132 12.8682L5.58139 12.7132L5.73643 13.1783L6.20155 13.6434L7.75194 13.9535L8.52713 14.4186L8.99225 14.7287V15.0387L8.06201 14.7287L7.75194 14.5736V14.2636H6.51163L4.34108 13.1783L4.03101 12.248Z" fill="#E7E7DF"/>
<path d="M16.4341 11.783L17.0543 12.093V12.8682L16.124 13.6434L15.814 14.8837L14.7287 15.5039L13.7984 15.6589L14.5736 14.8837L15.5039 14.2636L15.814 13.1783L16.4341 13.0233L16.5891 12.5582H16.8992L16.4341 12.093V11.783Z" fill="#E9E8E6"/>
<path d="M16.2791 12.4031L16.4341 13.0232L15.814 13.3333L15.5039 14.4186L13.7985 15.6589L12.8682 15.969L13.0233 15.5039L13.7985 15.3488L13.9535 14.8837L14.5736 14.4186L13.9535 13.9535L14.7287 13.7984L15.0388 14.2635H15.3488L15.0388 13.3333L16.2791 12.4031Z" fill="#AB9A8A"/>
<path d="M13.9535 5.58142L14.5736 5.73646L14.7287 6.35661L13.7984 6.20158L13.6434 6.66669H13.3333L13.1783 7.44189L12.7132 8.37212L12.2481 8.52716L11.7829 8.99227L11.6279 8.52716L12.7132 7.28685L12.8682 6.97677L12.5581 6.82173L12.7132 6.20158V6.51165L13.1783 6.04654L13.9535 5.8915V5.58142Z" fill="#F7B822"/>
<path d="M14.4186 5.58142L14.8837 5.73646L15.0388 6.20158L15.5039 6.35661L15.3488 6.82173V6.51165H13.9535V6.82173H13.6434V7.28685H14.1085V6.82173H14.4186L14.5736 7.44189H13.6434L13.4884 8.06204H13.0233V8.52716H12.7132L12.8682 7.907L13.3333 6.66669H13.6434L13.7985 6.04654L14.5736 6.20158L14.4186 5.58142Z" fill="#5F3E14"/>
<path d="M14.2636 11.1628L14.5736 11.4729V12.093L14.1085 11.938L13.6434 12.093L13.4884 12.5581L11.938 12.4031V12.8682L11.4729 12.7132L11.6279 11.3178L11.938 11.6279L11.7829 12.093L12.7132 11.938V11.6279L12.4031 11.4729L14.2636 11.6279V11.1628Z" fill="#655343"/>
<path d="M11.1628 11.6279L11.4729 11.783L11.6279 12.7132L11.938 12.8682V12.4031L12.5581 12.2481L12.4031 12.5582H12.093L12.2481 13.4884L12.8682 13.3334L12.4031 13.7985L11.7829 14.1085H11.1628V11.6279Z" fill="#A08F83"/>
<path d="M9.92248 8.37207L10.2326 8.83719L10.3876 9.61238L10.8527 9.45734L11.4729 8.52711L11.6279 8.99223L11.0077 10.5426H10.6977V10.8527H10.3876L9.92248 9.92246V8.37207Z" fill="#FDDD37"/>
<path d="M14.5736 7.13177L14.7287 7.75193L14.2636 7.90697L14.4186 8.68216L13.1783 8.99224L13.0233 9.30232L12.7132 9.14728L12.5581 8.37208L13.0233 8.52712V8.06201H13.4884L13.6434 7.44185H14.5736V7.13177Z" fill="#9F8361"/>
<path d="M11.0078 4.34106L11.938 4.4961L12.2481 4.34106V5.89145L12.093 6.04649H11.1628L11.0078 5.42634V5.11626V4.34106Z" fill="#AAA394"/>
<path d="M8.68217 11.3178L9.14729 11.4728L8.99225 11.938L9.6124 12.093V12.4031H10.2326L10.3876 13.7984L8.99225 13.6434L9.30232 13.4884L9.14729 12.5581L9.30232 12.248L8.52713 12.093L8.83721 11.938L8.68217 11.3178Z" fill="#4B4737"/>
<path d="M8.68217 4.49609H10.0775L9.76744 4.65113L10.2326 5.11625L10.5426 5.27129V5.89144L10.2326 6.04648L9.92248 6.82168H9.76744L9.92248 5.7364L9.6124 5.58137V5.27129L8.99225 5.11625L8.37209 4.80617H8.68217V4.49609Z" fill="#FCD731"/>
<path d="M3.72093 10.2325L5.27132 10.8527V11.4729L4.49613 11.6279V12.093L3.87597 12.248L3.72093 10.2325Z" fill="#B18A4E"/>
<path d="M6.66667 9.45734H6.97675L7.28682 9.76741L7.75194 10.2325L7.13178 10.3876L6.82171 10.2325L7.13178 11.7829V13.6434H6.35659V12.248H6.51163L6.66667 13.3333V9.45734Z" fill="#493412"/>
<path d="M11.6279 10.0775L12.4031 10.5426L12.2481 10.8527L11.7829 10.6977L11.4729 11.7829H11.3178L11.1628 14.4186H11.0078L10.8527 12.8682V11.4729L10.2326 11.6279L10.6977 11.1628L11.4729 10.3876L11.6279 10.0775Z" fill="#674B27"/>
<path d="M7.75194 4.03101H9.6124L10.3876 4.49612L10.0775 4.8062V4.49612H9.45736V4.18604H8.52713V4.49612L8.21705 4.8062L7.90697 5.73643L7.44186 6.8217L7.28682 6.35659V5.58139L7.5969 5.42635L7.75194 4.03101Z" fill="#7B632D"/>
<path d="M11.6279 10.5427L12.7132 10.8527L12.8682 11.1628L13.1783 11.3179L12.7132 11.6279V11.938L11.6279 12.2481V11.783L11.4729 11.1628L11.6279 10.5427Z" fill="#A39489"/>
<path d="M7.5969 7.75195H7.75194L7.90698 9.61242H6.97674L6.51163 8.83722L6.8217 8.21707L6.97674 8.52715L7.5969 7.75195Z" fill="#F6C425"/>
<path d="M5.89147 7.75195L6.20155 7.90699L6.04651 9.30234L5.58139 9.45738L5.42635 9.9225L5.27131 9.30234L5.58139 8.83722L5.27131 9.1473L4.8062 8.99226L5.27131 8.21707L5.89147 7.75195Z" fill="#CEA561"/>
<path d="M11.3178 3.87598L12.2481 4.03102L12.4031 4.18605V5.42636L13.0233 5.5814H12.2481L11.938 4.96125V4.49613H11.1628V5.11629L11.4729 5.42636H11.0078L11.1628 6.04652H10.8527V4.96125L10.3876 4.80621L10.6977 4.65117L11.0078 4.03102L11.3178 3.87598Z" fill="#524A30"/>
<path d="M8.37209 9.61243L8.99225 10.2326L9.30232 10.6977L10.0775 10.8527L10.2326 11.4729L9.30232 11.1628L8.21705 10.8527L7.90697 10.5427V9.9225H8.37209V9.61243Z" fill="#A3701A"/>
<path d="M12.4031 6.82172L13.0233 6.97676L12.4031 7.90699L11.6279 8.52714L11.7829 7.75195L11.0078 8.06203V7.75195L10.6977 7.59691L12.093 7.13179L12.4031 6.82172Z" fill="#F8D33C"/>
<path d="M5.73644 10.6977L6.51163 11.0078V12.2481L6.35659 12.5582H6.04651L6.20155 13.0233L5.5814 13.1783L4.96124 12.7132L5.89148 11.938H6.35659L6.20155 11.3178L5.5814 11.1628L5.73644 10.6977Z" fill="#5E4616"/>
<path d="M7.28682 11.3178L8.06202 11.4728L8.52713 11.938L8.37209 12.8682L7.13178 12.4031L7.28682 11.3178Z" fill="#34312B"/>
<path d="M10.5426 11.4728H10.8527V14.7287L10.6977 15.5038H10.5426L10.2326 12.5581L10.5426 12.4031V11.4728Z" fill="#B09667"/>
<path d="M16.124 11.0078L16.4341 11.3178V12.093L16.8992 12.2481V12.5581L16.4341 12.7132H16.124H15.6589V11.4729L16.124 11.3178V11.0078Z" fill="#856B4E"/>
<path d="M10.6977 6.04651L11.7829 6.20155L11.938 6.66666L12.2481 6.8217L11.7829 7.13178H11.0078L10.6977 6.97674V6.04651Z" fill="#BFB696"/>
<path d="M8.52713 4.18604H9.45737V4.49611H8.68217V4.80619H8.37209L8.52713 5.89146L7.90698 6.35658H7.5969L8.06202 4.80619L8.21706 4.49611H8.52713V4.18604Z" fill="#F6DA4D"/>
<path d="M13.7984 12.248L14.1085 12.4031V13.0232L14.4186 13.1783L14.2636 13.6434L13.7984 13.9535H13.3333V12.8682H13.0233V12.5581L13.6434 12.4031L13.7984 12.248Z" fill="#89807A"/>
<path d="M15.3488 10.0775L16.8992 10.8527V11.3178L15.814 11.4729L15.1938 11.6279L15.3488 11.1628L15.814 11.0077L15.969 10.6977L15.1938 10.3876L15.3488 10.0775Z" fill="#47372A"/>
<path d="M12.4031 9.92249L13.4884 10.2326L13.7985 10.0775L13.9535 10.5426H13.6434V10.8527H13.9535V11.1628L13.3333 11.3178V11.0078H13.0233V10.3876L12.4031 10.5426L12.093 10.0775L12.4031 9.92249Z" fill="#4E3118"/>
<path d="M12.2481 14.8837L13.1783 15.1938L12.4031 15.814H12.093V16.124H11.6279L11.3178 15.5039L12.2481 15.1938V14.8837Z" fill="#DDBD6F"/>
<path d="M12.8682 14.1085H14.2636L14.7287 14.5736L13.7985 15.0388V14.7287L13.0233 14.5736L12.7132 14.2636L12.8682 14.1085Z" fill="#654B31"/>
<path d="M9.6124 8.68219L9.92248 8.99227V10.0775L10.0775 10.8527L9.6124 11.0078L8.99225 10.6977V10.3876H9.30233L9.45736 9.76746L9.6124 8.68219Z" fill="#E7AE1E"/>
<path d="M4.34109 9.14728L5.11628 9.92247L4.96124 10.5426L3.5659 10.0775L3.72093 9.61239H4.34109V9.14728Z" fill="#C29F60"/>
<path d="M16.4341 11.783L17.0543 12.093V12.8682L16.7442 13.1783L15.969 13.4884L15.6589 14.7287L15.0388 14.5737L15.5039 14.2636L15.814 13.1783L16.4341 13.0233L16.5891 12.5582H16.8992L16.4341 12.093V11.783Z" fill="#CECCC8"/>
<path d="M13.0233 13.1783H13.1783V14.1085L12.8682 14.2636L13.7984 14.7287V15.0387L13.3333 15.1938L12.4031 14.7287L12.2481 13.9535L12.8682 13.6434L13.0233 13.1783Z" fill="#826440"/>
<path d="M6.35659 9.76746L6.66667 10.3876L6.82171 11.783V13.4884L6.51163 13.3333V11.0078L6.20155 10.8527L6.35659 9.76746Z" fill="#DBBD7E"/>
<path d="M6.51163 6.82172H7.28682L7.13178 7.75195L6.82171 8.06203L5.73643 7.90699V7.44187L6.66667 7.59691L6.51163 7.13179L6.97675 6.97676L6.51163 6.82172Z" fill="#7C6128"/>
<path d="M13.9535 5.58142L14.5736 5.73646L14.7287 6.35661L13.7984 6.20158L13.6434 6.66669H13.3333L13.1783 7.13181V6.66669L12.5581 6.82173L12.7132 6.20158V6.51165L13.1783 6.04654L13.9535 5.8915V5.58142Z" fill="#CC9235"/>
<path d="M8.68217 13.4884H9.92248L10.2326 13.9535L9.14728 14.1086L8.68217 14.4186L8.06201 14.1086L7.90697 13.6434L8.68217 13.4884Z" fill="#DBD3AF"/>
<path d="M5.73643 8.52716V8.99228L5.42635 9.61243L5.27132 10.0775L4.8062 9.92251V9.61243L4.49612 9.30235L4.34108 9.61243L4.03101 9.45739L4.18604 8.99228L4.96124 8.6822V8.99228L5.58139 8.6822L5.73643 8.52716Z" fill="#876933"/>
<path d="M6.82171 10.2325L7.5969 10.5426L7.13179 10.8527H7.5969V11.3178H7.28683V12.248L6.97675 12.5581V11.4729L6.82171 11.1628V10.2325Z" fill="#D1C5A2"/>
<path d="M14.1085 6.82172H14.4186L14.5736 7.44187H13.6434L13.4884 8.06203H13.0233V8.52714H12.7132L12.8682 7.90699L13.0233 7.44187L13.6434 6.97676V7.28683H14.1085V6.82172Z" fill="#6E491F"/>
<path d="M6.51163 13.7985H7.44186L8.37209 14.2636L8.99225 14.7287V15.0388L8.06201 14.7287L7.75194 14.5737V14.2636L6.66667 14.1085L6.51163 13.7985Z" fill="#DBDBD7"/>
<path d="M12.8682 12.248L13.1783 12.8682L12.5581 13.1783V13.4884L12.093 13.6434V12.5581L12.8682 12.248Z" fill="#2A1F15"/>
<path d="M9.30233 7.2868L9.76744 7.75192L9.6124 8.83719L8.99225 8.99223V7.90696L9.30233 7.2868Z" fill="#FBDE3B"/>
<path d="M14.2636 8.06201L15.3488 8.21705V8.37209H14.5736L14.7287 9.14728L13.9535 9.30232L13.6434 8.99224L13.9535 8.37209H14.2636V8.06201Z" fill="#917650"/>
<path d="M13.0233 4.34106L13.9535 4.4961V4.80618H14.2636L14.4186 5.58137L13.6434 5.73641L13.3333 4.65114L13.0233 4.34106Z" fill="#77562C"/>
<path d="M9.76744 9.61243L10.2326 10.2326L10.3876 10.8527L11.3178 10.6977L10.8527 11.3179L10.2326 11.4729L9.76744 10.0775V9.61243Z" fill="#D69B1D"/>
<path d="M6.66666 9.45734H6.97674L7.28682 9.76741L7.75194 10.2325L7.13178 10.3876L6.8217 10.2325L6.97674 11.4728L6.66666 11.3178V9.45734Z" fill="#5A390E"/>
<path d="M6.20155 8.83722L6.66667 8.99226L6.82171 9.45737L6.66667 10.3876L6.35659 10.5426V10.8527L5.73643 10.6977L6.04651 10.2326V9.45737L6.20155 9.30234V8.83722Z" fill="#AB7F34"/>
<path d="M10.2326 6.35657H10.8527V6.66664L10.5426 6.97672V7.2868L11.1628 7.44184L10.8527 7.59688L9.76744 7.2868L9.92248 6.66664L10.2326 6.35657Z" fill="#DBAA1E"/>
<path d="M13.9535 6.51166H15.3488V6.82174L14.4186 7.13181V6.82174H14.1085V7.28685H13.6434V6.82174H13.9535V6.51166Z" fill="#C2A469"/>
<path d="M11.6279 11.3178L11.938 11.6279L11.7829 12.093L12.7132 11.938V12.248L11.938 12.4031V12.8682L11.4729 12.7132L11.6279 11.3178Z" fill="#584331"/>
<path d="M8.21705 10.8527L8.99225 11.1628L8.83721 11.938L8.06202 11.6279L7.75194 11.4729L7.90698 11.0078L8.21705 10.8527Z" fill="#E9E1B8"/>
<path d="M12.7132 14.8837L13.7985 15.0388V15.3488L13.0233 15.6589L12.5581 16.124L11.938 16.2791L12.093 15.814L13.0233 15.1938L12.7132 14.8837Z" fill="#644A25"/>
<path d="M7.90697 4.49609L8.21705 4.65113L7.90697 5.7364L7.44186 6.82168L7.28682 6.35656V5.58137L7.5969 5.42633L7.90697 4.49609Z" fill="#5E4A16"/>
<path d="M11.0078 4.34106L11.938 4.4961V4.80618L11.3178 4.96122L11.7829 5.42634V5.73641H11.0078V5.11626V4.34106Z" fill="#E5E4D2"/>
<path d="M12.7132 4.03101L13.0233 4.18604L13.1783 5.42635H12.4031V4.49612L12.7132 4.03101Z" fill="#F7F8E9"/>
<path d="M5.11628 10.6977H5.42636L5.73643 11.938L5.11628 12.2481L4.65116 12.093V11.783H4.96124V11.4729H5.27132L5.11628 10.6977Z" fill="#5C3B0F"/>
<path d="M7.75194 10.0775L8.21705 10.3876L8.37209 11.1628L7.5969 11.3178V10.8527H7.13178L7.28682 10.5426L7.75194 10.0775Z" fill="#B08E52"/>
<path d="M8.99225 9.30231H9.45736L9.6124 9.92246L9.30232 10.3876L8.68217 10.0775L8.52713 9.45735L8.99225 9.61238V9.30231Z" fill="#FBC727"/>
<path d="M16.2791 12.4031L16.4341 13.0232L15.5039 13.3333V14.1085L15.0388 13.4883L15.6589 12.8682L16.2791 12.4031Z" fill="#A29C94"/>
<path d="M12.7132 10.3876H13.0233V11.0077H13.3333L13.7984 11.6279H12.8682L12.7132 11.0077H12.4031V10.5426L12.7132 10.3876Z" fill="#8E7F6C"/>
<path d="M6.97675 7.75195H7.28682L7.44186 8.21707L6.97675 8.68219L6.82171 8.52715L6.35659 9.1473V8.21707L6.97675 7.75195Z" fill="#FAD740"/>
<path d="M10.5426 13.3333H10.8527V14.7287L10.6977 15.5039H10.5426L10.3876 13.4884L10.5426 13.3333Z" fill="#D7BF88"/>
<path d="M13.9535 9.76746L14.4186 9.92249L14.5736 10.6977L14.2636 11.0078L13.6434 10.8527L13.9535 9.76746Z" fill="#6B4E3A"/>
<path d="M11.3178 14.2635H11.938V15.0387L11.1628 15.3488L11.3178 14.2635Z" fill="#A59483"/>
<path d="M6.04651 12.5582H6.35659V13.6434H7.44186V13.7985H6.20155L6.04651 13.3334H5.73643V13.0233L6.04651 12.8682V12.5582Z" fill="#938260"/>
<path d="M11.7829 9.76746H12.8682L13.6434 10.0775L13.3333 10.3876L12.4031 10.0775V10.5426L11.7829 10.3876V9.76746Z" fill="#A88E69"/>
<path d="M6.04651 8.06201L6.20155 8.68217L5.89147 9.45736H5.58139L5.42636 9.92248L5.27132 9.30232L5.73643 8.83721L6.04651 8.06201Z" fill="#CB9E52"/>
<path d="M15.5039 11.4728H15.6589V12.7131L15.969 12.8682L14.8837 13.4883L14.7287 13.1783L15.0388 12.7131L15.5039 12.8682V11.4728Z" fill="#5A4630"/>
<path d="M8.37209 11.938L9.30233 12.2481L9.14729 12.7132L8.37209 12.8682V11.938Z" fill="#EDECD4"/>
<path d="M8.83721 10.3876L9.61241 10.8527H10.0775L10.2326 11.4728L9.30233 11.1628L8.68217 11.0077L8.83721 10.3876Z" fill="#683C05"/>
<path d="M8.83721 14.5737H9.76744V15.1938L9.14729 15.5039L8.83721 14.5737Z" fill="#896F4F"/>
<path d="M7.13178 5.58142L7.44186 5.8915L7.28682 6.82173H6.66666L6.97674 5.8915L7.13178 5.58142Z" fill="#F7F7E9"/>
<path d="M13.9535 14.8837L14.5736 15.0388L13.7985 15.6589L12.8682 15.969L13.0233 15.5039L13.7985 15.3488L13.9535 14.8837Z" fill="#B3ADA9"/>
<path d="M6.04651 9.61243L6.20155 10.2326L5.73643 10.6977L5.11628 10.5427L6.04651 9.61243Z" fill="#DCB16B"/>
<path d="M6.66666 8.21704L6.97674 8.52712L7.44186 8.21704L7.5969 8.99223L7.13178 9.14727L6.66666 8.8372V8.21704Z" fill="#FBD32A"/>
<path d="M8.52713 4.18604H9.45736V4.49611H8.68217V4.80619H8.37209V5.11627L8.06201 4.96123L8.21705 4.49611H8.52713V4.18604Z" fill="#ECC94B"/>
<path d="M3.72093 10.2325L4.65116 10.6977L4.49613 11.3178H4.03101L3.72093 10.2325Z" fill="#D6B575"/>
<path d="M12.7132 6.66669H13.1783L13.0233 7.907L12.5581 8.06204L12.7132 7.28684V6.82173V6.66669Z" fill="#E7A722"/>
<path d="M12.7132 14.4186L13.7984 14.7287V15.0387L13.3333 15.1938L12.4031 14.7287L12.7132 14.4186Z" fill="#B19166"/>
<path d="M3.87597 10.6977L4.18605 11.3178L4.49612 12.093L3.87597 12.2481V10.6977Z" fill="#A5946B"/>
<path d="M5.73644 10.6977L6.51163 11.0078V12.093L6.04651 11.938H6.35659L6.20155 11.3178L5.5814 11.1628L5.73644 10.6977Z" fill="#805D20"/>
<path d="M12.5581 8.37207H13.7984L13.1783 8.83719L13.0233 9.3023L12.7132 9.14726L12.5581 8.37207Z" fill="#B0986F"/>
<path d="M9.61241 5.58142L10.0775 5.73646L9.61241 6.97677H9.45737V5.8915L9.61241 5.58142Z" fill="#FCE142"/>
<path d="M12.2481 14.8837L13.1783 15.1938L12.8682 15.5039L11.938 15.3488L12.2481 15.1938V14.8837Z" fill="#D9B268"/>
<path d="M9.6124 13.7985H10.3876L10.5426 14.1085L9.92248 14.4186H9.30232V14.1085H9.6124V13.7985Z" fill="#907549"/>
<path d="M11.7829 12.8682H11.938V13.9535L11.1628 14.1085L11.3178 13.4884L11.6279 13.6434L11.7829 12.8682Z" fill="#AFA29B"/>
<path d="M13.1783 6.04651L13.4884 6.20155L13.3333 6.51163L13.6434 6.66666H13.3333L13.1783 7.13178V6.66666L12.5581 6.8217L12.7132 6.20155V6.51163L13.1783 6.04651Z" fill="#C78B13"/>
<path d="M11.1628 6.04651H12.4031V6.66666H11.938L11.7829 6.35659L11.1628 6.04651Z" fill="#867661"/>
<path d="M12.8682 4.49609L13.4884 4.65113V5.42633L13.0233 5.27129L12.8682 4.49609Z" fill="#BBA168"/>
<path d="M8.68217 4.49609H10.0775L9.76745 4.65113L9.61241 4.96121H9.14729L8.68217 4.49609Z" fill="#F9CE28"/>
<path d="M10.0775 14.8837L10.3876 15.3488L9.92248 15.6589L9.30232 15.5039L9.45736 15.1938L10.0775 14.8837Z" fill="#514135"/>
<path d="M7.5969 13.6434L8.3721 13.9535L8.68217 14.4186H8.21706L7.44186 13.7985L7.5969 13.6434Z" fill="#737563"/>
<path d="M11.7829 11.6279H12.7132V11.938L11.6279 12.2481L11.7829 11.6279Z" fill="#B2A69D"/>
<path d="M7.28682 11.3178H7.5969V12.5581L7.13178 12.4031L7.28682 11.3178Z" fill="#5C5A4A"/>
<path d="M9.92248 9.45734H10.2326L10.6977 10.8527H10.3876L9.92248 9.92245V9.45734Z" fill="#FAD22F"/>
<path d="M3.72093 9.61243H4.49613L4.18605 10.2326L3.5659 10.0775L3.72093 9.61243Z" fill="#A7905F"/>
</g>
<defs>
<clipPath id="clip0_173_8783">
<rect width="20" height="20" fill="white"/>
</clipPath>
</defs>
</svg>
